  0
SECTION
  2
HEADER
  9
$ACADVER
  1
AC1015
  9
$ACADMAINTVER
 70
     6
  9
$DWGCODEPAGE
  3
ANSI_1254
  9
$INSBASE
 10
0.0
 20
0.0
 30
0.0
  9
$EXTMIN
 10
0.0
 20
0.0
 30
0.0
  9
$EXTMAX
 10
420.0
 20
297.0
 30
0.0
  9
$LIMMIN
 10
0.0
 20
0.0
  9
$LIMMAX
 10
420.0
 20
297.0
  9
$ORTHOMODE
 70
     0
  9
$REGENMODE
 70
     1
  9
$FILLMODE
 70
     1
  9
$QTEXTMODE
 70
     0
  9
$MIRRTEXT
 70
     1
  9
$LTSCALE
 40
1.0
  9
$ATTMODE
 70
     1
  9
$TEXTSIZE
 40
3.5
  9
$TRACEWID
 40
1.0
  9
$TEXTSTYLE
  7
Standard
  9
$CLAYER
  8
0
  9
$CELTYPE
  6
ByLayer
  9
$CECOLOR
 62
   256
  9
$CELTSCALE
 40
1.0
  9
$DISPSILH
 70
     0
  9
$DIMSCALE
 40
1.0
  9
$DIMASZ
 40
3.302
  9
$DIMEXO
 40
1.0
  9
$DIMDLI
 40
3.75
  9
$DIMRND
 40
0.0
  9
$DIMDLE
 40
0.0
  9
$DIMEXE
 40
1.0
  9
$DIMTP
 40
0.0
  9
$DIMTM
 40
0.0
  9
$DIMTXT
 40
3.5
  9
$DIMCEN
 40
2.5
  9
$DIMTSZ
 40
0.0
  9
$DIMTOL
 70
     0
  9
$DIMLIM
 70
     0
  9
$DIMTIH
 70
     1
  9
$DIMTOH
 70
     1
  9
$DIMSE1
 70
     0
  9
$DIMSE2
 70
     0
  9
$DIMTAD
 70
     1
  9
$DIMZIN
 70
     1
  9
$DIMBLK
  1

  9
$DIMASO
 70
     1
  9
$DIMSHO
 70
     1
  9
$DIMPOST
  1

  9
$DIMAPOST
  1

  9
$DIMALT
 70
     0
  9
$DIMALTD
 70
     3
  9
$DIMALTF
 40
0.0393700787
  9
$DIMLFAC
 40
1.0
  9
$DIMTOFL
 70
     1
  9
$DIMTVP
 40
0.0
  9
$DIMTIX
 70
     0
  9
$DIMSOXD
 70
     0
  9
$DIMSAH
 70
     0
  9
$DIMBLK1
  1

  9
$DIMBLK2
  1

  9
$DIMSTYLE
  2
ISO-25
  9
$DIMCLRD
 70
     0
  9
$DIMCLRE
 70
     0
  9
$DIMCLRT
 70
     0
  9
$DIMTFAC
 40
1.0
  9
$DIMGAP
 40
1.524
  9
$DIMJUST
 70
     0
  9
$DIMSD1
 70
     0
  9
$DIMSD2
 70
     0
  9
$DIMTOLJ
 70
     0
  9
$DIMTZIN
 70
     1
  9
$DIMALTZ
 70
     0
  9
$DIMALTTZ
 70
     0
  9
$DIMUPT
 70
     0
  9
$DIMDEC
 70
     2
  9
$DIMTDEC
 70
     2
  9
$DIMALTU
 70
     2
  9
$DIMALTTD
 70
     3
  9
$DIMTXSTY
  7
Standard
  9
$DIMAUNIT
 70
     0
  9
$DIMADEC
 70
     2
  9
$DIMALTRND
 40
0.0
  9
$DIMAZIN
 70
     0
  9
$DIMDSEP
 70
    44
  9
$DIMATFIT
 70
     3
  9
$DIMFRAC
 70
     0
  9
$DIMLDRBLK
  1

  9
$DIMLUNIT
 70
     2
  9
$DIMLWD
 70
    -2
  9
$DIMLWE
 70
    -2
  9
$DIMTMOVE
 70
     0
  9
$LUNITS
 70
     2
  9
$LUPREC
 70
     2
  9
$SKETCHINC
 40
1.0
  9
$FILLETRAD
 40
10.0
  9
$AUNITS
 70
     0
  9
$AUPREC
 70
     2
  9
$MENU
  1
.
  9
$ELEVATION
 40
0.0
  9
$PELEVATION
 40
0.0
  9
$THICKNESS
 40
0.0
  9
$LIMCHECK
 70
     0
  9
$CHAMFERA
 40
0.0
  9
$CHAMFERB
 40
0.0
  9
$CHAMFERC
 40
0.0
  9
$CHAMFERD
 40
0.0
  9
$SKPOLY
 70
     0
  9
$TDCREATE
 40
2458858.352540509
  9
$TDUCREATE
 40
2458858.227540509
  9
$TDUPDATE
 40
2458858.352544826
  9
$TDUUPDATE
 40
2458858.227544826
  9
$TDINDWG
 40
0.0000000116
  9
$TDUSRTIMER
 40
0.0000000116
  9
$USRTIMER
 70
     1
  9
$ANGBASE
 50
0.0
  9
$ANGDIR
 70
     0
  9
$PDMODE
 70
     0
  9
$PDSIZE
 40
-1.0
  9
$PLINEWID
 40
0.0
  9
$SPLFRAME
 70
     0
  9
$SPLINETYPE
 70
     6
  9
$SPLINESEGS
 70
     8
  9
$HANDSEED
  5
25E
  9
$SURFTAB1
 70
     6
  9
$SURFTAB2
 70
     6
  9
$SURFTYPE
 70
     6
  9
$SURFU
 70
     6
  9
$SURFV
 70
     6
  9
$UCSBASE
  2

  9
$UCSNAME
  2

  9
$UCSORG
 10
0.0
 20
0.0
 30
0.0
  9
$UCSXDIR
 10
1.0
 20
0.0
 30
0.0
  9
$UCSYDIR
 10
0.0
 20
1.0
 30
0.0
  9
$UCSORTHOREF
  2

  9
$UCSORTHOVIEW
 70
     0
  9
$UCSORGTOP
 10
0.0
 20
0.0
 30
0.0
  9
$UCSORGBOTTOM
 10
0.0
 20
0.0
 30
0.0
  9
$UCSORGLEFT
 10
0.0
 20
0.0
 30
0.0
  9
$UCSORGRIGHT
 10
0.0
 20
0.0
 30
0.0
  9
$UCSORGFRONT
 10
0.0
 20
0.0
 30
0.0
  9
$UCSORGBACK
 10
0.0
 20
0.0
 30
0.0
  9
$PUCSBASE
  2

  9
$PUCSNAME
  2

  9
$PUCSORG
 10
0.0
 20
0.0
 30
0.0
  9
$PUCSXDIR
 10
1.0
 20
0.0
 30
0.0
  9
$PUCSYDIR
 10
0.0
 20
1.0
 30
0.0
  9
$PUCSORTHOREF
  2

  9
$PUCSORTHOVIEW
 70
     0
  9
$PUCSORGTOP
 10
0.0
 20
0.0
 30
0.0
  9
$PUCSORGBOTTOM
 10
0.0
 20
0.0
 30
0.0
  9
$PUCSORGLEFT
 10
0.0
 20
0.0
 30
0.0
  9
$PUCSORGRIGHT
 10
0.0
 20
0.0
 30
0.0
  9
$PUCSORGFRONT
 10
0.0
 20
0.0
 30
0.0
  9
$PUCSORGBACK
 10
0.0
 20
0.0
 30
0.0
  9
$USERI1
 70
     0
  9
$USERI2
 70
     0
  9
$USERI3
 70
     0
  9
$USERI4
 70
     0
  9
$USERI5
 70
     0
  9
$USERR1
 40
0.0
  9
$USERR2
 40
0.0
  9
$USERR3
 40
0.0
  9
$USERR4
 40
0.0
  9
$USERR5
 40
0.0
  9
$WORLDVIEW
 70
     1
  9
$SHADEDGE
 70
     3
  9
$SHADEDIF
 70
    70
  9
$TILEMODE
 70
     1
  9
$MAXACTVP
 70
    64
  9
$PINSBASE
 10
0.0
 20
0.0
 30
0.0
  9
$PLIMCHECK
 70
     0
  9
$PEXTMIN
 10
1.0000000000E+20
 20
1.0000000000E+20
 30
1.0000000000E+20
  9
$PEXTMAX
 10
-1.0000000000E+20
 20
-1.0000000000E+20
 30
-1.0000000000E+20
  9
$PLIMMIN
 10
0.0
 20
0.0
  9
$PLIMMAX
 10
420.0
 20
297.0
  9
$UNITMODE
 70
     0
  9
$VISRETAIN
 70
     1
  9
$PLINEGEN
 70
     0
  9
$PSLTSCALE
 70
     1
  9
$TREEDEPTH
 70
  3020
  9
$CMLSTYLE
  2
Standard
  9
$CMLJUST
 70
     0
  9
$CMLSCALE
 40
20.0
  9
$PROXYGRAPHICS
 70
     1
  9
$MEASUREMENT
 70
     1
  9
$CELWEIGHT
370
    -1
  9
$ENDCAPS
280
     0
  9
$JOINSTYLE
280
     0
  9
$LWDISPLAY
290
     1
  9
$INSUNITS
 70
     4
  9
$HYPERLINKBASE
  1

  9
$STYLESHEET
  1

  9
$XEDIT
290
     1
  9
$CEPSNTYPE
380
     0
  9
$PSTYLEMODE
290
     1
  9
$FINGERPRINTGUID
  2
{300defcb-270d-45b8-9d21-82003eb478ea}
  9
$VERSIONGUID
  2
{FAEB1C32-E019-11D5-929B-00C0DF256EC4}
  9
$EXTNAMES
290
     1
  9
$PSVPSCALE
 40
0.0
  9
$OLESTARTUP
290
     0
  0
ENDSEC
  0
SECTION
  2
CLASSES
  0
CLASS
  1
ACDBDICTIONARYWDFLT
  2
AcDbDictionaryWithDefault
  3
ObjectDBX Classes
 90
        0
280
     0
281
     0
  0
CLASS
  1
VISUALSTYLE
  2
AcDbVisualStyle
  3
ObjectDBX Classes
 90
     4095
280
     0
281
     0
  0
CLASS
  1
MATERIAL
  2
AcDbMaterial
  3
ObjectDBX Classes
 90
     1153
280
     0
281
     0
  0
CLASS
  1
SCALE
  2
AcDbScale
  3
ObjectDBX Classes
 90
     1153
280
     0
281
     0
  0
CLASS
  1
TABLESTYLE
  2
AcDbTableStyle
  3
ObjectDBX Classes
 90
     4095
280
     0
281
     0
  0
CLASS
  1
MLEADERSTYLE
  2
AcDbMLeaderStyle
  3
ACDB_MLEADERSTYLE_CLASS
 90
     4095
280
     0
281
     0
  0
CLASS
  1
SUN
  2
AcDbSun
  3
SCENEOE
 90
     1153
280
     0
281
     0
  0
CLASS
  1
ACDBPLACEHOLDER
  2
AcDbPlaceHolder
  3
ObjectDBX Classes
 90
        0
280
     0
281
     0
  0
CLASS
  1
LAYOUT
  2
AcDbLayout
  3
ObjectDBX Classes
 90
        0
280
     0
281
     0
  0
ENDSEC
  0
SECTION
  2
TABLES
  0
TABLE
  2
VPORT
  5
8
330
0
100
AcDbSymbolTable
 70
     1
  0
VPORT
  5
29
330
8
100
AcDbSymbolTableRecord
100
AcDbViewportTableRecord
  2
*Active
 70
     0
 10
0.0
 20
0.0
 11
1.0
 21
1.0
 12
210.0
 22
148.5
 13
0.0
 23
0.0
 14
10.0
 24
10.0
 15
10.0
 25
10.0
 16
0.0
 26
0.0
 36
1.0
 17
0.0
 27
0.0
 37
0.0
 40
297.0
 41
1.4141414141
 42
50.0
 43
0.0
 44
0.0
 50
0.0
 51
0.0
 71
     0
 72
  2000
 73
     1
 74
     3
 75
     0
 76
     0
 77
     0
 78
     0
281
     0
 65
     1
110
0.0
120
0.0
130
0.0
111
1.0
121
0.0
131
0.0
112
0.0
122
1.0
132
0.0
 79
     0
146
0.0
  0
ENDTAB
  0
TABLE
  2
LTYPE
  5
5
330
0
100
AcDbSymbolTable
 70
     6
  0
LTYPE
  5
14
330
5
100
AcDbSymbolTableRecord
100
AcDbLinetypeTableRecord
  2
ByBlock
 70
     0
  3

 72
    65
 73
     0
 40
0.0
  0
LTYPE
  5
15
330
5
100
AcDbSymbolTableRecord
100
AcDbLinetypeTableRecord
  2
ByLayer
 70
     0
  3

 72
    65
 73
     0
 40
0.0
  0
LTYPE
  5
16
330
5
100
AcDbSymbolTableRecord
100
AcDbLinetypeTableRecord
  2
Continuous
 70
     0
  3
Solid line
 72
    65
 73
     0
 40
0.0
  0
LTYPE
  5
6E
330
5
100
AcDbSymbolTableRecord
100
AcDbLinetypeTableRecord
  2
HIDDEN
 70
     0
  3
Hidden __ __ __ __ __ __ __ __ __ __ __ __ __ __
 72
    65
 73
     2
 40
1.905
 49
1.27
 74
     0
 49
-0.635
 74
     0
  0
LTYPE
  5
6F
330
5
100
AcDbSymbolTableRecord
100
AcDbLinetypeTableRecord
  2
PHANTOM
 70
     0
  3
Phantom ______  __  __  ______  __  __  ______
 72
    65
 73
     6
 40
12.7
 49
6.35
 74
     0
 49
-1.27
 74
     0
 49
1.27
 74
     0
 49
-1.27
 74
     0
 49
1.27
 74
     0
 49
-1.27
 74
     0
  0
LTYPE
  5
70
330
5
100
AcDbSymbolTableRecord
100
AcDbLinetypeTableRecord
  2
CENTER
 70
     0
  3
Center ____ _ ____ _ ____ _ ____ _ ____ _ ____
 72
    65
 73
     4
 40
10.16
 49
6.35
 74
     0
 49
-1.27
 74
     0
 49
1.27
 74
     0
 49
-1.27
 74
     0
  0
LTYPE
  5
71
330
5
100
AcDbSymbolTableRecord
100
AcDbLinetypeTableRecord
  2
CENTERX2
 70
     0
  3
Center (2x) ________  __  ________  __  _____
 72
    65
 73
     4
 40
20.32
 49
12.7
 74
     0
 49
-2.54
 74
     0
 49
2.54
 74
     0
 49
-2.54
 74
     0
  0
LTYPE
  5
72
330
5
100
AcDbSymbolTableRecord
100
AcDbLinetypeTableRecord
  2
DOT2
 70
     0
  3
Dot (.5x) ........................................
 72
    65
 73
     2
 40
0.635
 49
0.0
 74
     0
 49
-0.635
 74
     0
  0
ENDTAB
  0
TABLE
  2
LAYER
  5
2
330
0
100
AcDbSymbolTable
 70
     6
  0
LAYER
  5
10
330
2
100
AcDbSymbolTableRecord
100
AcDbLayerTableRecord
  2
0
 70
     0
 62
     7
  6
Continuous
370
    -3
390
F
  0
LAYER
  5
73
330
2
100
AcDbSymbolTableRecord
100
AcDbLayerTableRecord
  2
FORMAT
 70
     0
 62
     7
  6
Continuous
370
    -3
390
F
  0
LAYER
  5
74
330
2
100
AcDbSymbolTableRecord
100
AcDbLayerTableRecord
  2
LAYER_1
 70
     0
 62
   179
  6
Continuous
370
    25
390
F
  0
LAYER
  5
75
330
2
100
AcDbSymbolTableRecord
100
AcDbLayerTableRecord
  2
LAYER_2
 70
     0
 62
     1
  6
Continuous
370
    -3
390
F
  0
LAYER
  5
76
330
2
100
AcDbSymbolTableRecord
100
AcDbLayerTableRecord
  2
LAYER1
 70
     0
 62
     7
  6
Continuous
370
    25
390
F
  0
LAYER
  5
77
330
2
100
AcDbSymbolTableRecord
100
AcDbLayerTableRecord
  2
LAYER2
 70
     0
 62
     1
  6
Continuous
370
    -3
390
F
  0
ENDTAB
  0
TABLE
  2
STYLE
  5
3
330
0
100
AcDbSymbolTable
 70
     5
  0
STYLE
  5
11
330
3
100
AcDbSymbolTableRecord
100
AcDbTextStyleTableRecord
  2
Standard
 70
     0
 40
0.0
 41
1.0
 50
0.0
 71
     0
 42
3.5
  3
txt
  4

  0
STYLE
  5
7E
330
3
100
AcDbSymbolTableRecord
100
AcDbTextStyleTableRecord
  2
SLDTEXTSTYLE0
 70
     0
 40
0.0
 41
0.7
 50
0.0
 71
     0
 42
3.5
  3
TXT
  4

  0
STYLE
  5
143
330
3
100
AcDbSymbolTableRecord
100
AcDbTextStyleTableRecord
  2
SLDTEXTSTYLE1
 70
     0
 40
0.0
 41
0.605
 50
0.0
 71
     0
 42
3.5
  3
TXT
  4

  0
STYLE
  5
17E
330
3
100
AcDbSymbolTableRecord
100
AcDbTextStyleTableRecord
  2
SLDTEXTSTYLE2
 70
     0
 40
0.0
 41
0.605
 50
0.0
 71
     0
 42
3.5
  3
TXT
  4
bigfont
  0
STYLE
  5
1BC
330
3
100
AcDbSymbolTableRecord
100
AcDbTextStyleTableRecord
  2
SLDTEXTSTYLE3
 70
     0
 40
0.0
 41
0.75
 50
0.0
 71
     0
 42
3.5
  3
TXT
  4

  0
ENDTAB
  0
TABLE
  2
VIEW
  5
6
330
0
100
AcDbSymbolTable
 70
     0
  0
ENDTAB
  0
TABLE
  2
UCS
  5
7
330
0
100
AcDbSymbolTable
 70
     0
  0
ENDTAB
  0
TABLE
  2
APPID
  5
9
330
0
100
AcDbSymbolTable
 70
     1
  0
APPID
  5
12
330
9
100
AcDbSymbolTableRecord
100
AcDbRegAppTableRecord
  2
ACAD
 70
     0
  0
ENDTAB
  0
TABLE
  2
DIMSTYLE
  5
A
330
0
100
AcDbSymbolTable
 70
     6
100
AcDbDimStyleTable
  0
DIMSTYLE
105
27
330
A
100
AcDbSymbolTableRecord
100
AcDbDimStyleTableRecord
  2
ISO-25
 70
     0
 41
2.5
 42
0.625
 43
3.75
 44
1.25
 73
     0
 74
     0
 77
     1
 78
     8
140
2.5
141
2.5
143
0.0393700787
147
0.625
171
     3
172
     1
178
     0
271
     2
272
     2
274
     3
278
    44
283
     0
284
     8
340
11
  0
DIMSTYLE
105
1BD
102
{ACAD_REACTORS
330
1BB
330
1F3
330
207
330
211
330
21B
102
}
330
A
100
AcDbSymbolTableRecord
100
AcDbDimStyleTableRecord
  2
SLDDIMSTYLE0
 70
     0
 41
3.302
 44
0.0
 45
0.000000001
 73
     0
 74
     0
 77
     1
 78
    12
 79
     3
140
3.175
147
0.79375
173
     1
178
     0
271
     0
272
     0
276
     2
284
    12
340
1BC
  0
DIMSTYLE
105
1C8
102
{ACAD_REACTORS
330
1C7
330
1DF
330
1E9
330
1FD
330
232
330
23C
102
}
330
A
100
AcDbSymbolTableRecord
100
AcDbDimStyleTableRecord
  2
SLDDIMSTYLE1
 70
     0
 41
3.302
 44
0.0
 45
0.000000001
 73
     0
 74
     0
 77
     1
 78
    12
 79
     3
140
3.175
147
0.79375
173
     1
178
     0
271
     1
272
     1
276
     2
284
    12
340
1BC
  0
DIMSTYLE
105
1D3
102
{ACAD_REACTORS
330
1D2
102
}
330
A
100
AcDbSymbolTableRecord
100
AcDbDimStyleTableRecord
  2
SLDDIMSTYLE2
 70
     0
 41
3.302
 44
0.0
 45
0.000000001
 73
     0
 74
     0
 77
     1
 78
    12
 79
     3
140
3.175
141
0.0
147
0.79375
172
     1
173
     1
178
     0
271
     1
272
     1
276
     2
284
    12
340
1BC
341
1D4
343
1D4
  0
DIMSTYLE
105
226
102
{ACAD_REACTORS
330
225
102
}
330
A
100
AcDbSymbolTableRecord
100
AcDbDimStyleTableRecord
  2
SLDDIMSTYLE3
 70
     0
 41
3.302
 44
0.0
 45
0.000000001
 73
     0
 74
     0
 77
     1
 78
    12
 79
     3
140
3.175
147
0.79375
172
     1
173
     1
178
     0
271
     0
272
     0
276
     2
284
    12
289
     0
340
1BC
  0
DIMSTYLE
105
251
102
{ACAD_REACTORS
330
250
102
}
330
A
100
AcDbSymbolTableRecord
100
AcDbDimStyleTableRecord
  2
SLDDIMSTYLE4
 70
     0
 41
3.302
 44
0.0
 45
0.000000001
 73
     0
 74
     0
 77
     1
 78
    12
 79
     3
140
3.175
147
0.79375
172
     1
173
     1
178
     0
271
     1
272
     1
276
     2
284
    12
289
     0
340
1BC
  0
ENDTAB
  0
TABLE
  2
BLOCK_RECORD
  5
1
330
0
100
AcDbSymbolTable
 70
    24
  0
BLOCK_RECORD
  5
1F
330
1
100
AcDbSymbolTableRecord
100
AcDbBlockTableRecord
  2
*Model_Space
340
22
  0
BLOCK_RECORD
  5
1B
330
1
100
AcDbSymbolTableRecord
100
AcDbBlockTableRecord
  2
*Paper_Space
340
1E
  0
BLOCK_RECORD
  5
23
330
1
100
AcDbSymbolTableRecord
100
AcDbBlockTableRecord
  2
*Paper_Space0
340
26
  0
BLOCK_RECORD
  5
78
330
1
100
AcDbSymbolTableRecord
100
AcDbBlockTableRecord
  2
Block4
340
0
102
{BLKREFS
331
142
102
}
  0
BLOCK_RECORD
  5
7B
330
1
100
AcDbSymbolTableRecord
100
AcDbBlockTableRecord
  2
SW_NOTE_0
340
0
102
{BLKREFS
331
80
102
}
  0
BLOCK_RECORD
  5
81
330
1
100
AcDbSymbolTableRecord
100
AcDbBlockTableRecord
  2
Block5
340
0
102
{BLKREFS
331
140
102
}
  0
BLOCK_RECORD
  5
8C
330
1
100
AcDbSymbolTableRecord
100
AcDbBlockTableRecord
  2
Block6
340
0
102
{BLKREFS
331
141
102
}
  0
BLOCK_RECORD
  5
158
330
1
100
AcDbSymbolTableRecord
100
AcDbBlockTableRecord
  2
SW_NOTE_0_1
340
0
102
{BLKREFS
331
15D
102
}
  0
BLOCK_RECORD
  5
171
330
1
100
AcDbSymbolTableRecord
100
AcDbBlockTableRecord
  2
SW_NOTE_0_2
340
0
102
{BLKREFS
331
17A
102
}
  0
BLOCK_RECORD
  5
181
330
1
100
AcDbSymbolTableRecord
100
AcDbBlockTableRecord
  2
SW_NOTE_0_3
340
0
102
{BLKREFS
331
18A
102
}
  0
BLOCK_RECORD
  5
18C
330
1
100
AcDbSymbolTableRecord
100
AcDbBlockTableRecord
  2
SW_NOTE_0_4
340
0
102
{BLKREFS
331
19A
102
}
  0
BLOCK_RECORD
  5
1BE
330
1
100
AcDbSymbolTableRecord
100
AcDbBlockTableRecord
  2
_D
340
0
  0
BLOCK_RECORD
  5
1C9
330
1
100
AcDbSymbolTableRecord
100
AcDbBlockTableRecord
  2
_D_1
340
0
  0
BLOCK_RECORD
  5
1D4
330
1
100
AcDbSymbolTableRecord
100
AcDbBlockTableRecord
  2
_None
340
0
  0
BLOCK_RECORD
  5
1D7
330
1
100
AcDbSymbolTableRecord
100
AcDbBlockTableRecord
  2
_D_2
340
0
  0
BLOCK_RECORD
  5
1E0
330
1
100
AcDbSymbolTableRecord
100
AcDbBlockTableRecord
  2
_D_3
340
0
  0
BLOCK_RECORD
  5
1EA
330
1
100
AcDbSymbolTableRecord
100
AcDbBlockTableRecord
  2
_D_4
340
0
  0
BLOCK_RECORD
  5
1F4
330
1
100
AcDbSymbolTableRecord
100
AcDbBlockTableRecord
  2
_D_5
340
0
  0
BLOCK_RECORD
  5
1FE
330
1
100
AcDbSymbolTableRecord
100
AcDbBlockTableRecord
  2
_D_6
340
0
  0
BLOCK_RECORD
  5
208
330
1
100
AcDbSymbolTableRecord
100
AcDbBlockTableRecord
  2
_D_7
340
0
  0
BLOCK_RECORD
  5
212
330
1
100
AcDbSymbolTableRecord
100
AcDbBlockTableRecord
  2
_D_8
340
0
  0
BLOCK_RECORD
  5
21C
330
1
100
AcDbSymbolTableRecord
100
AcDbBlockTableRecord
  2
_D_9
340
0
  0
BLOCK_RECORD
  5
227
330
1
100
AcDbSymbolTableRecord
100
AcDbBlockTableRecord
  2
_D_10
340
0
  0
BLOCK_RECORD
  5
233
330
1
100
AcDbSymbolTableRecord
100
AcDbBlockTableRecord
  2
_D_11
340
0
  0
BLOCK_RECORD
  5
23D
330
1
100
AcDbSymbolTableRecord
100
AcDbBlockTableRecord
  2
_D_12
340
0
  0
BLOCK_RECORD
  5
252
330
1
100
AcDbSymbolTableRecord
100
AcDbBlockTableRecord
  2
_D_13
340
0
  0
ENDTAB
  0
ENDSEC
  0
SECTION
  2
BLOCKS
  0
BLOCK
  5
20
330
1F
100
AcDbEntity
  8
0
100
AcDbBlockBegin
  2
*Model_Space
 70
     0
 10
0.0
 20
0.0
 30
0.0
  3
*Model_Space
  1

  0
ENDBLK
  5
21
330
1F
100
AcDbEntity
  8
0
100
AcDbBlockEnd
  0
BLOCK
  5
1C
330
1B
100
AcDbEntity
 67
     1
  8
0
100
AcDbBlockBegin
  2
*Paper_Space
 70
     0
 10
0.0
 20
0.0
 30
0.0
  3
*Paper_Space
  1

  0
ENDBLK
  5
1D
330
1B
100
AcDbEntity
 67
     1
  8
0
100
AcDbBlockEnd
  0
BLOCK
  5
24
330
23
100
AcDbEntity
  8
0
100
AcDbBlockBegin
  2
*Paper_Space0
 70
     0
 10
0.0
 20
0.0
 30
0.0
  3
*Paper_Space0
  1

  0
ENDBLK
  5
25
330
23
100
AcDbEntity
  8
0
100
AcDbBlockEnd
  0
BLOCK
  5
79
330
78
100
AcDbEntity
  8
0
100
AcDbBlockBegin
  2
Block4
 70
     0
 10
0.0
 20
0.0
 30
0.0
  3
Block4
  1

  0
INSERT
  5
80
330
78
100
AcDbEntity
  8
0
  6
Continuous
 62
     7
370
    18
100
AcDbBlockReference
  2
SW_NOTE_0
 10
0.0681123653
 20
-0.3355248887
 30
0.0
  0
ENDBLK
  5
7A
330
78
100
AcDbEntity
  8
0
100
AcDbBlockEnd
  0
BLOCK
  5
7C
330
7B
100
AcDbEntity
  8
0
100
AcDbBlockBegin
  2
SW_NOTE_0
 70
     0
 10
0.0
 20
0.0
 30
0.0
  3
SW_NOTE_0
  1

  0
MTEXT
  5
7F
330
7B
100
AcDbEntity
  8
0
  6
Continuous
 62
     0
370
    18
100
AcDbMText
 10
0.0
 20
1.7053291974
 30
0.0
 40
1.3229166667
 41
0.0
 71
     1
 72
     1
  1
ENCLOSURES FOR ELECTRONICS
  7
SLDTEXTSTYLE0
 73
     1
 44
1.0
  0
ENDBLK
  5
7D
330
7B
100
AcDbEntity
  8
0
100
AcDbBlockEnd
  0
BLOCK
  5
82
330
81
100
AcDbEntity
  8
0
100
AcDbBlockBegin
  2
Block5
 70
     0
 10
0.0
 20
0.0
 30
0.0
  3
Block5
  1

  0
CIRCLE
  5
84
330
81
100
AcDbEntity
  8
LAYER_1
100
AcDbCircle
 10
11.8202720118
 20
3.9855728122
 30
0.0
 40
1.400000000000031
  0
CIRCLE
  5
85
330
81
100
AcDbEntity
  8
LAYER_1
100
AcDbCircle
 10
11.8202720118
 20
3.9855728122
 30
0.0
 40
3.400000000000028
  0
LINE
  5
86
330
81
100
AcDbEntity
  8
LAYER_1
100
AcDbLine
 10
0.0
 20
4.0266952847
 30
0.0
 11
15.8776569467
 21
4.0266952847
 31
0.0
  0
LINE
  5
87
330
81
100
AcDbEntity
  8
LAYER_1
100
AcDbLine
 10
6.7934234199
 20
7.3359236059
 30
0.0
 11
6.7934234199
 21
0.5359236059
 31
0.0
  0
LINE
  5
88
330
81
100
AcDbEntity
  8
LAYER_1
100
AcDbLine
 10
1.0125475392
 20
5.3359236059
 30
0.0
 11
1.0125475392
 21
2.5359236059
 31
0.0
  0
LINE
  5
89
330
81
100
AcDbEntity
  8
LAYER_1
100
AcDbLine
 10
1.0125475392
 20
2.5359236059
 30
0.0
 11
6.7934234199
 21
0.5359236059
 31
0.0
  0
LINE
  5
8A
330
81
100
AcDbEntity
  8
LAYER_1
100
AcDbLine
 10
6.7934234199
 20
7.3359236059
 30
0.0
 11
1.0125475392
 21
5.3359236059
 31
0.0
  0
LINE
  5
8B
330
81
100
AcDbEntity
  8
LAYER_1
100
AcDbLine
 10
11.8202720118
 20
8.1865819926
 30
0.0
 11
11.8202720118
 21
0.0
 31
0.0
  0
ENDBLK
  5
83
330
81
100
AcDbEntity
  8
0
100
AcDbBlockEnd
  0
BLOCK
  5
8D
330
8C
100
AcDbEntity
  8
0
100
AcDbBlockBegin
  2
Block6
 70
     0
 10
0.0
 20
0.0
 30
0.0
  3
Block6
  1

  0
LINE
  5
8F
330
8C
100
AcDbEntity
  8
LAYER_1
 62
   250
100
AcDbLine
 10
24.9996066667
 20
0.0
 30
0.0
 11
26.2681466667
 21
4.35981
 31
0.0
  0
LINE
  5
90
330
8C
100
AcDbEntity
  8
LAYER_1
 62
   250
100
AcDbLine
 10
26.2681466667
 20
4.35981
 30
0.0
 11
27.4404866667
 21
4.35981
 31
0.0
  0
LINE
  5
91
330
8C
100
AcDbEntity
  8
LAYER_1
 62
   250
100
AcDbLine
 10
27.4404866667
 20
4.35981
 30
0.0
 11
28.7082033333
 21
0.0
 31
0.0
  0
LINE
  5
92
330
8C
100
AcDbEntity
  8
LAYER_1
 62
   250
100
AcDbLine
 10
28.7082033333
 20
0.0
 30
0.0
 11
27.56
 21
0.0
 31
0.0
  0
LINE
  5
93
330
8C
100
AcDbEntity
  8
LAYER_1
 62
   250
100
AcDbLine
 10
27.56
 20
0.0
 30
0.0
 11
27.4255366667
 21
0.5769833333
 31
0.0
  0
LINE
  5
94
330
8C
100
AcDbEntity
  8
LAYER_1
 62
   250
100
AcDbLine
 10
27.4255366667
 20
0.5769833333
 30
0.0
 11
26.27716
 21
0.5769833333
 31
0.0
  0
LINE
  5
95
330
8C
100
AcDbEntity
  8
LAYER_1
 62
   250
100
AcDbLine
 10
26.27716
 20
0.5769833333
 30
0.0
 11
26.1376266667
 21
0.0
 31
0.0
  0
LINE
  5
96
330
8C
100
AcDbEntity
  8
LAYER_1
 62
   250
100
AcDbLine
 10
26.1376266667
 20
0.0
 30
0.0
 11
24.9996066667
 21
0.0
 31
0.0
  0
LINE
  5
97
330
8C
100
AcDbEntity
  8
LAYER_1
 62
   250
100
AcDbLine
 10
26.48776
 20
1.4914466667
 30
0.0
 11
27.2148066667
 21
1.4914466667
 31
0.0
  0
LINE
  5
98
330
8C
100
AcDbEntity
  8
LAYER_1
 62
   250
100
AcDbLine
 10
27.2148066667
 20
1.4914466667
 30
0.0
 11
26.8553566667
 21
3.00079
 31
0.0
  0
LINE
  5
99
330
8C
100
AcDbEntity
  8
LAYER_1
 62
   250
100
AcDbLine
 10
26.8553566667
 20
3.00079
 30
0.0
 11
26.48776
 21
1.4914466667
 31
0.0
  0
LINE
  5
9A
330
8C
100
AcDbEntity
  8
LAYER_1
 62
   250
100
AcDbLine
 10
23.2651466667
 20
0.0
 30
0.0
 11
23.2651466667
 21
1.6134733333
 31
0.0
  0
LINE
  5
9B
330
8C
100
AcDbEntity
  8
LAYER_1
 62
   250
100
AcDbLine
 10
23.2651466667
 20
1.6134733333
 30
0.0
 11
21.93815
 21
4.35981
 31
0.0
  0
LINE
  5
9C
330
8C
100
AcDbEntity
  8
LAYER_1
 62
   250
100
AcDbLine
 10
21.93815
 20
4.35981
 30
0.0
 11
23.2209466667
 21
4.35981
 31
0.0
  0
LINE
  5
9D
330
8C
100
AcDbEntity
  8
LAYER_1
 62
   250
100
AcDbLine
 10
23.2209466667
 20
4.35981
 30
0.0
 11
23.84356
 21
2.87352
 31
0.0
  0
LINE
  5
9E
330
8C
100
AcDbEntity
  8
LAYER_1
 62
   250
100
AcDbLine
 10
23.84356
 20
2.87352
 30
0.0
 11
24.47042
 21
4.35981
 31
0.0
  0
LINE
  5
9F
330
8C
100
AcDbEntity
  8
LAYER_1
 62
   250
100
AcDbLine
 10
24.47042
 20
4.35981
 30
0.0
 11
25.71881
 21
4.35981
 31
0.0
  0
LINE
  5
A0
330
8C
100
AcDbEntity
  8
LAYER_1
 62
   250
100
AcDbLine
 10
25.71881
 20
4.35981
 30
0.0
 11
24.4234033333
 21
1.6134733333
 31
0.0
  0
LINE
  5
A1
330
8C
100
AcDbEntity
  8
LAYER_1
 62
   250
100
AcDbLine
 10
24.4234033333
 20
1.6134733333
 30
0.0
 11
24.4234033333
 21
0.0
 31
0.0
  0
LINE
  5
A2
330
8C
100
AcDbEntity
  8
LAYER_1
 62
   250
100
AcDbLine
 10
24.4234033333
 20
0.0
 30
0.0
 11
23.2651466667
 21
0.0
 31
0.0
  0
LINE
  5
A3
330
8C
100
AcDbEntity
  8
LAYER_1
 62
   250
100
AcDbLine
 10
18.94035
 20
0.0
 30
0.0
 11
20.2091066667
 21
4.35981
 31
0.0
  0
LINE
  5
A4
330
8C
100
AcDbEntity
  8
LAYER_1
 62
   250
100
AcDbLine
 10
20.2091066667
 20
4.35981
 30
0.0
 11
21.38136
 21
4.35981
 31
0.0
  0
LINE
  5
A5
330
8C
100
AcDbEntity
  8
LAYER_1
 62
   250
100
AcDbLine
 10
21.38136
 20
4.35981
 30
0.0
 11
22.64912
 21
0.0
 31
0.0
  0
LINE
  5
A6
330
8C
100
AcDbEntity
  8
LAYER_1
 62
   250
100
AcDbLine
 10
22.64912
 20
0.0
 30
0.0
 11
21.50083
 21
0.0
 31
0.0
  0
LINE
  5
A7
330
8C
100
AcDbEntity
  8
LAYER_1
 62
   250
100
AcDbLine
 10
21.50083
 20
0.0
 30
0.0
 11
21.36641
 21
0.5769833333
 31
0.0
  0
LINE
  5
A8
330
8C
100
AcDbEntity
  8
LAYER_1
 62
   250
100
AcDbLine
 10
21.36641
 20
0.5769833333
 30
0.0
 11
20.21799
 21
0.5769833333
 31
0.0
  0
LINE
  5
A9
330
8C
100
AcDbEntity
  8
LAYER_1
 62
   250
100
AcDbLine
 10
20.21799
 20
0.5769833333
 30
0.0
 11
20.07863
 21
0.0
 31
0.0
  0
LINE
  5
AA
330
8C
100
AcDbEntity
  8
LAYER_1
 62
   250
100
AcDbLine
 10
20.07863
 20
0.0
 30
0.0
 11
18.94035
 21
0.0
 31
0.0
  0
LINE
  5
AB
330
8C
100
AcDbEntity
  8
LAYER_1
 62
   250
100
AcDbLine
 10
20.4289366667
 20
1.4914466667
 30
0.0
 11
21.15594
 21
1.4914466667
 31
0.0
  0
LINE
  5
AC
330
8C
100
AcDbEntity
  8
LAYER_1
 62
   250
100
AcDbLine
 10
21.15594
 20
1.4914466667
 30
0.0
 11
20.79649
 21
3.00079
 31
0.0
  0
LINE
  5
AD
330
8C
100
AcDbEntity
  8
LAYER_1
 62
   250
100
AcDbLine
 10
20.79649
 20
3.00079
 30
0.0
 11
20.4289366667
 21
1.4914466667
 31
0.0
  0
LINE
  5
AE
330
8C
100
AcDbEntity
  8
LAYER_1
 62
   250
100
AcDbLine
 10
15.4246733333
 20
0.0
 30
0.0
 11
15.4246733333
 21
4.35981
 31
0.0
  0
LINE
  5
AF
330
8C
100
AcDbEntity
  8
LAYER_1
 62
   250
100
AcDbLine
 10
15.4246733333
 20
4.35981
 30
0.0
 11
16.5728333333
 21
4.35981
 31
0.0
  0
LINE
  5
B0
330
8C
100
AcDbEntity
  8
LAYER_1
 62
   250
100
AcDbLine
 10
16.5728333333
 20
4.35981
 30
0.0
 11
16.5728333333
 21
2.9150333333
 31
0.0
  0
LINE
  5
B1
330
8C
100
AcDbEntity
  8
LAYER_1
 62
   250
100
AcDbLine
 10
16.5728333333
 20
2.9150333333
 30
0.0
 11
17.6108833333
 21
4.35981
 31
0.0
  0
LINE
  5
B2
330
8C
100
AcDbEntity
  8
LAYER_1
 62
   250
100
AcDbLine
 10
17.6108833333
 20
4.35981
 30
0.0
 11
18.9553433333
 21
4.35981
 31
0.0
  0
LINE
  5
B3
330
8C
100
AcDbEntity
  8
LAYER_1
 62
   250
100
AcDbLine
 10
18.9553433333
 20
4.35981
 30
0.0
 11
17.6676066667
 21
2.75223
 31
0.0
  0
LINE
  5
B4
330
8C
100
AcDbEntity
  8
LAYER_1
 62
   250
100
AcDbLine
 10
17.6676066667
 20
2.75223
 30
0.0
 11
19.1215266667
 21
0.0
 31
0.0
  0
LINE
  5
B5
330
8C
100
AcDbEntity
  8
LAYER_1
 62
   250
100
AcDbLine
 10
19.1215266667
 20
0.0
 30
0.0
 11
17.7411
 21
0.0
 31
0.0
  0
LINE
  5
B6
330
8C
100
AcDbEntity
  8
LAYER_1
 62
   250
100
AcDbLine
 10
17.7411
 20
0.0
 30
0.0
 11
16.8593966667
 21
1.7459
 31
0.0
  0
LINE
  5
B7
330
8C
100
AcDbEntity
  8
LAYER_1
 62
   250
100
AcDbLine
 10
16.8593966667
 20
1.7459
 30
0.0
 11
16.5728333333
 21
1.38827
 31
0.0
  0
LINE
  5
B8
330
8C
100
AcDbEntity
  8
LAYER_1
 62
   250
100
AcDbLine
 10
16.5728333333
 20
1.38827
 30
0.0
 11
16.5728333333
 21
0.0
 31
0.0
  0
LINE
  5
B9
330
8C
100
AcDbEntity
  8
LAYER_1
 62
   250
100
AcDbLine
 10
16.5728333333
 20
0.0
 30
0.0
 11
15.4246733333
 21
0.0
 31
0.0
  0
LINE
  5
BA
330
8C
100
AcDbEntity
  8
LAYER_1
 62
   250
100
AcDbLine
 10
11.5248466667
 20
0.0
 30
0.0
 11
11.5248466667
 21
4.35981
 31
0.0
  0
LINE
  5
BB
330
8C
100
AcDbEntity
  8
LAYER_1
 62
   250
100
AcDbLine
 10
11.5248466667
 20
4.35981
 30
0.0
 11
12.6237366667
 21
4.35981
 31
0.0
  0
LINE
  5
BC
330
8C
100
AcDbEntity
  8
LAYER_1
 62
   250
100
AcDbLine
 10
12.6237366667
 20
4.35981
 30
0.0
 11
13.6350933333
 21
2.33181
 31
0.0
  0
LINE
  5
BD
330
8C
100
AcDbEntity
  8
LAYER_1
 62
   250
100
AcDbLine
 10
13.8163566667
 20
2.3027766667
 30
0.0
 11
13.8163566667
 21
4.35981
 31
0.0
  0
LINE
  5
BE
330
8C
100
AcDbEntity
  8
LAYER_1
 62
   250
100
AcDbLine
 10
13.8163566667
 20
4.35981
 30
0.0
 11
14.9203166667
 21
4.35981
 31
0.0
  0
LINE
  5
BF
330
8C
100
AcDbEntity
  8
LAYER_1
 62
   250
100
AcDbLine
 10
14.9203166667
 20
4.35981
 30
0.0
 11
14.9203166667
 21
0.0
 31
0.0
  0
LINE
  5
C0
330
8C
100
AcDbEntity
  8
LAYER_1
 62
   250
100
AcDbLine
 10
14.9203166667
 20
0.0
 30
0.0
 11
13.8163566667
 21
0.0
 31
0.0
  0
LINE
  5
C1
330
8C
100
AcDbEntity
  8
LAYER_1
 62
   250
100
AcDbLine
 10
13.8163566667
 20
0.0
 30
0.0
 11
12.805
 21
2.0127466667
 31
0.0
  0
LINE
  5
C2
330
8C
100
AcDbEntity
  8
LAYER_1
 62
   250
100
AcDbLine
 10
12.6237366667
 20
2.0419533333
 30
0.0
 11
12.6237366667
 21
0.0
 31
0.0
  0
LINE
  5
C3
330
8C
100
AcDbEntity
  8
LAYER_1
 62
   250
100
AcDbLine
 10
12.6237366667
 20
0.0
 30
0.0
 11
11.5248466667
 21
0.0
 31
0.0
  0
LINE
  5
C4
330
8C
100
AcDbEntity
  8
LAYER_1
 62
   250
100
AcDbLine
 10
9.8223666667
 20
0.0
 30
0.0
 11
9.8223666667
 21
4.35981
 31
0.0
  0
LINE
  5
C5
330
8C
100
AcDbEntity
  8
LAYER_1
 62
   250
100
AcDbLine
 10
9.8223666667
 20
4.35981
 30
0.0
 11
11.0021166667
 21
4.35981
 31
0.0
  0
LINE
  5
C6
330
8C
100
AcDbEntity
  8
LAYER_1
 62
   250
100
AcDbLine
 10
11.0021166667
 20
4.35981
 30
0.0
 11
11.0021166667
 21
0.0
 31
0.0
  0
LINE
  5
C7
330
8C
100
AcDbEntity
  8
LAYER_1
 62
   250
100
AcDbLine
 10
11.0021166667
 20
0.0
 30
0.0
 11
9.8223666667
 21
0.0
 31
0.0
  0
LINE
  5
C8
330
8C
100
AcDbEntity
  8
LAYER_1
 62
   250
100
AcDbLine
 10
7.23138
 20
0.0
 30
0.0
 11
7.23138
 21
3.2110433333
 31
0.0
  0
LINE
  5
C9
330
8C
100
AcDbEntity
  8
LAYER_1
 62
   250
100
AcDbLine
 10
7.23138
 20
3.2110433333
 30
0.0
 11
6.19346
 21
3.2110433333
 31
0.0
  0
LINE
  5
CA
330
8C
100
AcDbEntity
  8
LAYER_1
 62
   250
100
AcDbLine
 10
6.19346
 20
3.2110433333
 30
0.0
 11
6.19346
 21
4.35981
 31
0.0
  0
LINE
  5
CB
330
8C
100
AcDbEntity
  8
LAYER_1
 62
   250
100
AcDbLine
 10
6.19346
 20
4.35981
 30
0.0
 11
9.40576
 21
4.35981
 31
0.0
  0
LINE
  5
CC
330
8C
100
AcDbEntity
  8
LAYER_1
 62
   250
100
AcDbLine
 10
9.40576
 20
4.35981
 30
0.0
 11
9.40576
 21
3.2110433333
 31
0.0
  0
LINE
  5
CD
330
8C
100
AcDbEntity
  8
LAYER_1
 62
   250
100
AcDbLine
 10
9.40576
 20
3.2110433333
 30
0.0
 11
8.3895933333
 21
3.2110433333
 31
0.0
  0
LINE
  5
CE
330
8C
100
AcDbEntity
  8
LAYER_1
 62
   250
100
AcDbLine
 10
8.3895933333
 20
3.2110433333
 30
0.0
 11
8.3895933333
 21
0.0
 31
0.0
  0
LINE
  5
CF
330
8C
100
AcDbEntity
  8
LAYER_1
 62
   250
100
AcDbLine
 10
8.3895933333
 20
0.0
 30
0.0
 11
7.23138
 21
0.0
 31
0.0
  0
LINE
  5
D0
330
8C
100
AcDbEntity
  8
LAYER_1
 62
   250
100
AcDbLine
 10
4.0396633333
 20
0.0
 30
0.0
 11
4.0396633333
 21
4.35981
 31
0.0
  0
LINE
  5
D1
330
8C
100
AcDbEntity
  8
LAYER_1
 62
   250
100
AcDbLine
 10
4.0396633333
 20
4.35981
 30
0.0
 11
5.1978766667
 21
4.35981
 31
0.0
  0
LINE
  5
D2
330
8C
100
AcDbEntity
  8
LAYER_1
 62
   250
100
AcDbLine
 10
5.1978766667
 20
4.35981
 30
0.0
 11
5.1978766667
 21
1.15791
 31
0.0
  0
LINE
  5
D3
330
8C
100
AcDbEntity
  8
LAYER_1
 62
   250
100
AcDbLine
 10
5.1978766667
 20
1.15791
 30
0.0
 11
6.7722633333
 21
1.15791
 31
0.0
  0
LINE
  5
D4
330
8C
100
AcDbEntity
  8
LAYER_1
 62
   250
100
AcDbLine
 10
6.7722633333
 20
1.15791
 30
0.0
 11
6.7722633333
 21
0.0
 31
0.0
  0
LINE
  5
D5
330
8C
100
AcDbEntity
  8
LAYER_1
 62
   250
100
AcDbLine
 10
6.7722633333
 20
0.0
 30
0.0
 11
4.0396633333
 21
0.0
 31
0.0
  0
LINE
  5
D6
330
8C
100
AcDbEntity
  8
LAYER_1
 62
   250
100
AcDbLine
 10
0.0
 20
0.0
 30
0.0
 11
1.26854
 21
4.35981
 31
0.0
  0
LINE
  5
D7
330
8C
100
AcDbEntity
  8
LAYER_1
 62
   250
100
AcDbLine
 10
1.26854
 20
4.35981
 30
0.0
 11
2.4410966667
 21
4.35981
 31
0.0
  0
LINE
  5
D8
330
8C
100
AcDbEntity
  8
LAYER_1
 62
   250
100
AcDbLine
 10
2.4410966667
 20
4.35981
 30
0.0
 11
3.7088133333
 21
0.0
 31
0.0
  0
LINE
  5
D9
330
8C
100
AcDbEntity
  8
LAYER_1
 62
   250
100
AcDbLine
 10
3.7088133333
 20
0.0
 30
0.0
 11
2.5605233333
 21
0.0
 31
0.0
  0
LINE
  5
DA
330
8C
100
AcDbEntity
  8
LAYER_1
 62
   250
100
AcDbLine
 10
2.5605233333
 20
0.0
 30
0.0
 11
2.4260166667
 21
0.5769833333
 31
0.0
  0
LINE
  5
DB
330
8C
100
AcDbEntity
  8
LAYER_1
 62
   250
100
AcDbLine
 10
2.4260166667
 20
0.5769833333
 30
0.0
 11
1.27777
 21
0.5769833333
 31
0.0
  0
LINE
  5
DC
330
8C
100
AcDbEntity
  8
LAYER_1
 62
   250
100
AcDbLine
 10
1.27777
 20
0.5769833333
 30
0.0
 11
1.1383233333
 21
0.0
 31
0.0
  0
LINE
  5
DD
330
8C
100
AcDbEntity
  8
LAYER_1
 62
   250
100
AcDbLine
 10
1.1383233333
 20
0.0
 30
0.0
 11
0.0
 21
0.0
 31
0.0
  0
LINE
  5
DE
330
8C
100
AcDbEntity
  8
LAYER_1
 62
   250
100
AcDbLine
 10
1.48824
 20
1.4914466667
 30
0.0
 11
2.21533
 21
1.4914466667
 31
0.0
  0
LINE
  5
DF
330
8C
100
AcDbEntity
  8
LAYER_1
 62
   250
100
AcDbLine
 10
2.21533
 20
1.4914466667
 30
0.0
 11
1.8562266667
 21
3.00079
 31
0.0
  0
LINE
  5
E0
330
8C
100
AcDbEntity
  8
LAYER_1
 62
   250
100
AcDbLine
 10
1.8562266667
 20
3.00079
 30
0.0
 11
1.48824
 21
1.4914466667
 31
0.0
  0
SPLINE
  5
E1
330
8C
100
AcDbEntity
  8
LAYER_1
 62
   250
100
AcDbSpline
210
0.0
220
0.0
230
1.0
 70
     8
 71
     3
 72
     8
 73
     4
 74
     0
 42
0.00000001
 43
0.00000001
 40
0.1666666666666667
 40
0.1666666666666667
 40
0.1666666666666667
 40
0.1666666666666667
 40
0.2222222222222222
 40
0.2222222222222222
 40
0.2222222222222222
 40
0.2222222222222222
 10
13.63509333333335
 20
2.331810000000011
 30
0.0
 10
13.66599000000002
 20
2.275390000000009
 30
0.0
 10
13.69931333333335
 20
2.194486666666683
 30
0.0
 10
13.73441333333336
 20
2.089576666666683
 30
0.0
  0
SPLINE
  5
E2
330
8C
100
AcDbEntity
  8
LAYER_1
 62
   250
100
AcDbSpline
210
0.0
220
0.0
230
1.0
 70
     8
 71
     3
 72
     8
 73
     4
 74
     0
 42
0.00000001
 43
0.00000001
 40
0.2222222222222222
 40
0.2222222222222222
 40
0.2222222222222222
 40
0.2222222222222222
 40
0.2777777777777778
 40
0.2777777777777778
 40
0.2777777777777778
 40
0.2777777777777778
 10
13.73441333333336
 20
2.089576666666683
 30
0.0
 10
13.76947000000001
 20
1.985403333333344
 30
0.0
 10
13.80613000000003
 20
1.859043333333338
 30
0.0
 10
13.84569333333335
 20
1.710670000000011
 30
0.0
  0
SPLINE
  5
E3
330
8C
100
AcDbEntity
  8
LAYER_1
 62
   250
100
AcDbSpline
210
0.0
220
0.0
230
1.0
 70
     8
 71
     3
 72
     8
 73
     4
 74
     0
 42
0.00000001
 43
0.00000001
 40
0.2777777777777778
 40
0.2777777777777778
 40
0.2777777777777778
 40
0.2777777777777778
 40
0.3333333333333334
 40
0.3333333333333334
 40
0.3333333333333334
 40
0.3333333333333334
 10
13.84569333333335
 20
1.710670000000011
 30
0.0
 10
13.83555333333336
 20
1.787543333333343
 30
0.0
 10
13.82879333333337
 20
1.872173333333345
 30
0.0
 10
13.82381000000005
 20
1.965080000000015
 30
0.0
  0
SPLINE
  5
E4
330
8C
100
AcDbEntity
  8
LAYER_1
 62
   250
100
AcDbSpline
210
0.0
220
0.0
230
1.0
 70
     8
 71
     3
 72
     8
 73
     4
 74
     0
 42
0.00000001
 43
0.00000001
 40
0.3333333333333334
 40
0.3333333333333334
 40
0.3333333333333334
 40
0.3333333333333334
 40
0.388888888888889
 40
0.388888888888889
 40
0.388888888888889
 40
0.388888888888889
 10
13.82381000000005
 20
1.965080000000015
 30
0.0
 10
13.81886999999998
 20
2.058246666666673
 30
0.0
 10
13.8163566666667
 20
2.170263333333346
 30
0.0
 10
13.8163566666667
 20
2.30277666666668
 30
0.0
  0
SPLINE
  5
E5
330
8C
100
AcDbEntity
  8
LAYER_1
 62
   250
100
AcDbSpline
210
0.0
220
0.0
230
1.0
 70
     8
 71
     3
 72
     8
 73
     4
 74
     0
 42
0.00000001
 43
0.00000001
 40
0.6666666666666669
 40
0.6666666666666669
 40
0.6666666666666669
 40
0.6666666666666669
 40
0.7222222222222224
 40
0.7222222222222224
 40
0.7222222222222224
 40
0.7222222222222224
 10
12.80500000000001
 20
2.012746666666676
 30
0.0
 10
12.77419000000002
 20
2.072330000000004
 30
0.0
 10
12.74004333333334
 20
2.156093333333345
 30
0.0
 10
12.70321000000002
 20
2.264340000000018
 30
0.0
  0
SPLINE
  5
E6
330
8C
100
AcDbEntity
  8
LAYER_1
 62
   250
100
AcDbSpline
210
0.0
220
0.0
230
1.0
 70
     8
 71
     3
 72
     8
 73
     4
 74
     0
 42
0.00000001
 43
0.00000001
 40
0.7222222222222224
 40
0.7222222222222224
 40
0.7222222222222224
 40
0.7222222222222224
 40
0.777777777777778
 40
0.777777777777778
 40
0.777777777777778
 40
0.777777777777778
 10
12.70321000000002
 20
2.264340000000018
 30
0.0
 10
12.66620333333335
 20
2.372543333333345
 30
0.0
 10
12.62954333333333
 20
2.49665000000001
 30
0.0
 10
12.59206000000002
 20
2.637050000000009
 30
0.0
  0
SPLINE
  5
E7
330
8C
100
AcDbEntity
  8
LAYER_1
 62
   250
100
AcDbSpline
210
0.0
220
0.0
230
1.0
 70
     8
 71
     3
 72
     8
 73
     4
 74
     0
 42
0.00000001
 43
0.00000001
 40
0.777777777777778
 40
0.777777777777778
 40
0.777777777777778
 40
0.777777777777778
 40
0.8333333333333336
 40
0.8333333333333336
 40
0.8333333333333336
 40
0.8333333333333336
 10
12.59206000000002
 20
2.637050000000009
 30
0.0
 10
12.60367333333334
 20
2.560350000000017
 30
0.0
 10
12.61117
 20
2.479446666666676
 30
0.0
 10
12.61615333333338
 20
2.395553333333349
 30
0.0
  0
SPLINE
  5
E8
330
8C
100
AcDbEntity
  8
LAYER_1
 62
   250
100
AcDbSpline
210
0.0
220
0.0
230
1.0
 70
     8
 71
     3
 72
     8
 73
     4
 74
     0
 42
0.00000001
 43
0.00000001
 40
0.8333333333333336
 40
0.8333333333333336
 40
0.8333333333333336
 40
0.8333333333333336
 40
0.8888888888888892
 40
0.8888888888888892
 40
0.8888888888888892
 40
0.8888888888888892
 10
12.61615333333338
 20
2.395553333333349
 30
0.0
 10
12.62122333333332
 20
2.311746666666677
 30
0.0
 10
12.62373666666672
 20
2.194486666666683
 30
0.0
 10
12.62373666666672
 20
2.041953333333346
 30
0.0
  0
ENDBLK
  5
8E
330
8C
100
AcDbEntity
  8
0
100
AcDbBlockEnd
  0
BLOCK
  5
159
330
158
100
AcDbEntity
  8
0
100
AcDbBlockBegin
  2
SW_NOTE_0_1
 70
     0
 10
0.0
 20
0.0
 30
0.0
  3
SW_NOTE_0_1
  1

  0
MTEXT
  5
15B
330
158
100
AcDbEntity
  8
LAYER_1
 62
     0
100
AcDbMText
 10
9.525
 20
5.4570534317
 30
0.0
 40
4.2333333333
 41
0.0
 71
     2
 72
     1
  1
SE-256
  7
SLDTEXTSTYLE1
 73
     1
 44
1.0
  0
MTEXT
  5
15C
330
158
100
AcDbEntity
  8
LAYER_1
 62
     0
100
AcDbMText
 10
10.5122898226
 20
-0.1873909445
 30
0.0
 40
4.2333333333
 41
0.0
 71
     2
 72
     1
  1
Pcb Sample (not included)
  7
SLDTEXTSTYLE1
 73
     1
 44
1.0
  0
ENDBLK
  5
15A
330
158
100
AcDbEntity
  8
0
100
AcDbBlockEnd
  0
BLOCK
  5
172
330
171
100
AcDbEntity
  8
0
100
AcDbBlockBegin
  2
SW_NOTE_0_2
 70
     0
 10
0.0
 20
0.0
 30
0.0
  3
SW_NOTE_0_2
  1

  0
MTEXT
  5
174
330
171
100
AcDbEntity
  8
0
  6
Continuous
 62
     0
370
     0
100
AcDbMText
 10
0.0
 20
1.7053291974
 30
0.0
 40
1.3229166667
 41
0.0
 71
     1
 72
     1
  1
COMMENTS: This drawing is subject to
  7
SLDTEXTSTYLE1
 73
     1
 44
1.0
  0
MTEXT
  5
175
330
171
100
AcDbEntity
  8
0
  6
Continuous
 62
     0
370
     0
100
AcDbMText
 10
0.0
 20
-0.0585596702
 30
0.0
 40
1.3229166667
 41
0.0
 71
     1
 72
     1
  1
technical modification without prior notice.
  7
SLDTEXTSTYLE1
 73
     1
 44
1.0
  0
MTEXT
  5
176
330
171
100
AcDbEntity
  8
0
  6
Continuous
 62
     0
370
     0
100
AcDbMText
 10
0.0
 20
-1.8224485377
 30
0.0
 40
1.3229166667
 41
0.0
 71
     1
 72
     1
  1
Typographical and other errors do not
  7
SLDTEXTSTYLE1
 73
     1
 44
1.0
  0
MTEXT
  5
177
330
171
100
AcDbEntity
  8
0
  6
Continuous
 62
     0
370
     0
100
AcDbMText
 10
0.0
 20
-3.5863374053
 30
0.0
 40
1.3229166667
 41
0.0
 71
     1
 72
     1
  1
justify any claims for damages. All
  7
SLDTEXTSTYLE1
 73
     1
 44
1.0
  0
MTEXT
  5
178
330
171
100
AcDbEntity
  8
0
  6
Continuous
 62
     0
370
     0
100
AcDbMText
 10
0.0
 20
-5.3502262729
 30
0.0
 40
1.3229166667
 41
0.0
 71
     1
 72
     1
  1
dimensions should be verified using an
  7
SLDTEXTSTYLE1
 73
     1
 44
1.0
  0
MTEXT
  5
179
330
171
100
AcDbEntity
  8
0
  6
Continuous
 62
     0
370
     0
100
AcDbMText
 10
0.0
 20
-7.1141151405
 30
0.0
 40
1.3229166667
 41
0.0
 71
     1
 72
     1
  1
actual produced part.
  7
SLDTEXTSTYLE1
 73
     1
 44
1.0
  0
ENDBLK
  5
173
330
171
100
AcDbEntity
  8
0
100
AcDbBlockEnd
  0
BLOCK
  5
182
330
181
100
AcDbEntity
  8
0
100
AcDbBlockBegin
  2
SW_NOTE_0_3
 70
     0
 10
0.0
 20
0.0
 30
0.0
  3
SW_NOTE_0_3
  1

  0
MTEXT
  5
184
330
181
100
AcDbEntity
  8
0
  6
Continuous
 62
     0
370
     0
100
AcDbMText
 10
0.0
 20
1.3642633579
 30
0.0
 40
1.0583333333
 41
0.0
 71
     1
 72
     1
  1
THE INFORMATION CONTAINED IN THIS
  7
SLDTEXTSTYLE1
 73
     1
 44
1.0
  0
MTEXT
  5
185
330
181
100
AcDbEntity
  8
0
  6
Continuous
 62
     0
370
     0
100
AcDbMText
 10
0.0
 20
-0.0468477361
 30
0.0
 40
1.0583333333
 41
0.0
 71
     1
 72
     1
  1
DRAWING IS THE SOLE PROPERTY OF
  7
SLDTEXTSTYLE1
 73
     1
 44
1.0
  0
MTEXT
  5
186
330
181
100
AcDbEntity
  8
0
  6
Continuous
 62
     0
370
     0
100
AcDbMText
 10
0.0
 20
-1.4579588302
 30
0.0
 40
1.0583333333
 41
0.0
 71
     1
 72
     1
  1
ALTINKAYA ENCLOSURES.  ANY
  7
SLDTEXTSTYLE1
 73
     1
 44
1.0
  0
MTEXT
  5
187
330
181
100
AcDbEntity
  8
0
  6
Continuous
 62
     0
370
     0
100
AcDbMText
 10
0.0
 20
-2.8690699242
 30
0.0
 40
1.0583333333
 41
0.0
 71
     1
 72
     1
  1
REPRODUCTION IN PART OR AS A WHOLE
  7
SLDTEXTSTYLE1
 73
     1
 44
1.0
  0
MTEXT
  5
188
330
181
100
AcDbEntity
  8
0
  6
Continuous
 62
     0
370
     0
100
AcDbMText
 10
0.0
 20
-4.2801810183
 30
0.0
 40
1.0583333333
 41
0.0
 71
     1
 72
     1
  1
WITHOUT THE WRITTEN PERMISSION OF
  7
SLDTEXTSTYLE1
 73
     1
 44
1.0
  0
MTEXT
  5
189
330
181
100
AcDbEntity
  8
0
  6
Continuous
 62
     0
370
     0
100
AcDbMText
 10
0.0
 20
-5.6912921124
 30
0.0
 40
1.0583333333
 41
0.0
 71
     1
 72
     1
  1
ALTINKAYA ENCLOSURES IS PROHIBITED.
  7
SLDTEXTSTYLE1
 73
     1
 44
1.0
  0
ENDBLK
  5
183
330
181
100
AcDbEntity
  8
0
100
AcDbBlockEnd
  0
BLOCK
  5
18D
330
18C
100
AcDbEntity
  8
0
100
AcDbBlockBegin
  2
SW_NOTE_0_4
 70
     0
 10
0.0
 20
0.0
 30
0.0
  3
SW_NOTE_0_4
  1

  0
MTEXT
  5
18F
330
18C
100
AcDbEntity
  8
LAYER_1
 62
     0
100
AcDbMText
 10
0.0
 20
1.7053291974
 30
0.0
 40
1.3229166667
 41
0.0
 71
     1
 72
     1
  1
DÝKKAT: BU RESÝM VE ÜRÜN ÖNCEDEN
  7
SLDTEXTSTYLE2
 73
     1
 44
1.0
  0
MTEXT
  5
190
330
18C
100
AcDbEntity
  8
LAYER_1
 62
     0
100
AcDbMText
 10
0.0
 20
-1.0585596012
 30
0.0
 40
1.3229166667
 41
0.0
 71
     1
 72
     1
  1
HABER VERÝLMEKSÝZÝN DEÐÝÞTÝREBÝLÝR.
  7
SLDTEXTSTYLE2
 73
     1
 44
1.0
  0
MTEXT
  5
191
330
18C
100
AcDbEntity
  8
LAYER_1
 62
     0
100
AcDbMText
 10
0.0
 20
-3.8224483999
 30
0.0
 40
1.3229166667
 41
0.0
 71
     1
 72
     1
  1
RESÝM ÇÝZÝLÝRKEN HATASIZ OLMASINA
  7
SLDTEXTSTYLE2
 73
     1
 44
1.0
  0
MTEXT
  5
192
330
18C
100
AcDbEntity
  8
LAYER_1
 62
     0
100
AcDbMText
 10
0.0
 20
-6.5863371986
 30
0.0
 40
1.3229166667
 41
0.0
 71
     1
 72
     1
  1
ÇALIÞILMASINA RAÐMEN RESÝMDE
  7
SLDTEXTSTYLE2
 73
     1
 44
1.0
  0
MTEXT
  5
193
330
18C
100
AcDbEntity
  8
LAYER_1
 62
     0
100
AcDbMText
 10
0.0
 20
-9.3502259972
 30
0.0
 40
1.3229166667
 41
0.0
 71
     1
 72
     1
  1
HATALAR BULUNABÝLÝR. RESÝMDEKÝ
  7
SLDTEXTSTYLE2
 73
     1
 44
1.0
  0
MTEXT
  5
194
330
18C
100
AcDbEntity
  8
LAYER_1
 62
     0
100
AcDbMText
 10
0.0
 20
-12.1141147959
 30
0.0
 40
1.3229166667
 41
0.0
 71
     1
 72
     1
  1
HATALARDAN DOLAYI OLUÞABÝLECEK
  7
SLDTEXTSTYLE2
 73
     1
 44
1.0
  0
MTEXT
  5
195
330
18C
100
AcDbEntity
  8
LAYER_1
 62
     0
100
AcDbMText
 10
0.0
 20
-14.8780035945
 30
0.0
 40
1.3229166667
 41
0.0
 71
     1
 72
     1
  1
ZARARLAR ÝÇÝN ALTINKAYA HÝÇ BÝR
  7
SLDTEXTSTYLE2
 73
     1
 44
1.0
  0
MTEXT
  5
196
330
18C
100
AcDbEntity
  8
LAYER_1
 62
     0
100
AcDbMText
 10
0.0
 20
-17.6418923932
 30
0.0
 40
1.3229166667
 41
0.0
 71
     1
 72
     1
  1
SORUMLULUK KABUL ETMEZ. BÜTÜN
  7
SLDTEXTSTYLE1
 73
     1
 44
1.0
  0
MTEXT
  5
197
330
18C
100
AcDbEntity
  8
LAYER_1
 62
     0
100
AcDbMText
 10
0.0
 20
-20.4057811918
 30
0.0
 40
1.3229166667
 41
0.0
 71
     1
 72
     1
  1
ÖLÇÜLER KULLANILMADAN ÖNCE
  7
SLDTEXTSTYLE1
 73
     1
 44
1.0
  0
MTEXT
  5
198
330
18C
100
AcDbEntity
  8
LAYER_1
 62
     0
100
AcDbMText
 10
0.0
 20
-23.1696699905
 30
0.0
 40
1.3229166667
 41
0.0
 71
     1
 72
     1
  1
ÜRETÝLMÝÞ GERÇEK NUMUNEDEN
  7
SLDTEXTSTYLE2
 73
     1
 44
1.0
  0
MTEXT
  5
199
330
18C
100
AcDbEntity
  8
LAYER_1
 62
     0
100
AcDbMText
 10
0.0
 20
-25.9335587891
 30
0.0
 40
1.3229166667
 41
0.0
 71
     1
 72
     1
  1
KONTROL EDÝLMELÝDÝR.
  7
SLDTEXTSTYLE2
 73
     1
 44
1.0
  0
ENDBLK
  5
18E
330
18C
100
AcDbEntity
  8
0
100
AcDbBlockEnd
  0
BLOCK
  5
1BF
330
1BE
100
AcDbEntity
  8
0
100
AcDbBlockBegin
  2
_D
 70
     0
 10
0.0
 20
0.0
 30
0.0
  3
_D
  1

  0
SOLID
  5
1C1
330
1BE
100
AcDbEntity
  8
LAYER_1
100
AcDbTrace
 10
89.5574521743
 20
179.5209367494
 30
0.0
 11
89.0494521743
 21
176.2189367494
 31
0.0
 12
90.0654521743
 22
176.2189367494
 32
0.0
 13
90.0654521743
 23
176.2189367494
 33
0.0
  0
SOLID
  5
1C2
330
1BE
100
AcDbEntity
  8
LAYER_1
100
AcDbTrace
 10
89.5574521743
 20
140.5209367494
 30
0.0
 11
90.0654521743
 21
143.8229367494
 31
0.0
 12
89.0494521743
 22
143.8229367494
 32
0.0
 13
89.0494521743
 23
143.8229367494
 33
0.0
  0
LINE
  5
1C3
330
1BE
100
AcDbEntity
  8
LAYER_1
100
AcDbLine
 10
97.9653469213
 20
179.5209367494
 30
0.0
 11
88.5574521743
 21
179.5209367494
 31
0.0
  0
LINE
  5
1C4
330
1BE
100
AcDbEntity
  8
LAYER_1
100
AcDbLine
 10
97.9653469213
 20
140.5209367494
 30
0.0
 11
88.5574521743
 21
140.5209367494
 31
0.0
  0
LINE
  5
1C5
330
1BE
100
AcDbEntity
  8
LAYER_1
100
AcDbLine
 10
89.5574521743
 20
179.5209367494
 30
0.0
 11
89.5574521743
 21
140.5209367494
 31
0.0
  0
MTEXT
  5
1C6
330
1BE
100
AcDbEntity
  8
LAYER_1
100
AcDbMText
 10
85.4646625662
 20
160.9600853733
 30
0.0
 40
3.175
 41
0.0
 71
     1
 72
     1
  1
39
  7
SLDTEXTSTYLE3
 11
-7.044195017643634E-15
 21
1.0
 31
0.0
 73
     1
 44
1.0
  0
ENDBLK
  5
1C0
330
1BE
100
AcDbEntity
  8
0
100
AcDbBlockEnd
  0
BLOCK
  5
1CA
330
1C9
100
AcDbEntity
  8
0
100
AcDbBlockBegin
  2
_D_1
 70
     0
 10
0.0
 20
0.0
 30
0.0
  3
_D_1
  1

  0
SOLID
  5
1CC
330
1C9
100
AcDbEntity
  8
LAYER_1
100
AcDbTrace
 10
142.1594045194
 20
210.0709367494
 30
0.0
 11
141.6514045194
 21
206.7689367494
 31
0.0
 12
142.6674045194
 22
206.7689367494
 32
0.0
 13
142.6674045194
 23
206.7689367494
 33
0.0
  0
SOLID
  5
1CD
330
1C9
100
AcDbEntity
  8
LAYER_1
100
AcDbTrace
 10
142.1594045194
 20
109.9709367494
 30
0.0
 11
142.6674045194
 21
113.2729367494
 31
0.0
 12
141.6514045194
 22
113.2729367494
 32
0.0
 13
141.6514045194
 23
113.2729367494
 33
0.0
  0
LINE
  5
1CE
330
1C9
100
AcDbEntity
  8
LAYER_1
100
AcDbLine
 10
133.0653469213
 20
210.0709367494
 30
0.0
 11
143.1594045194
 21
210.0709367494
 31
0.0
  0
LINE
  5
1CF
330
1C9
100
AcDbEntity
  8
LAYER_1
100
AcDbLine
 10
133.0653469213
 20
109.9709367494
 30
0.0
 11
143.1594045194
 21
109.9709367494
 31
0.0
  0
LINE
  5
1D0
330
1C9
100
AcDbEntity
  8
LAYER_1
100
AcDbLine
 10
142.1594045194
 20
210.0709367494
 30
0.0
 11
142.1594045194
 21
109.9709367494
 31
0.0
  0
MTEXT
  5
1D1
330
1C9
100
AcDbEntity
  8
LAYER_1
100
AcDbMText
 10
138.0666149113
 20
154.986272953
 30
0.0
 40
3.175
 41
0.0
 71
     1
 72
     1
  1
100,1
  7
SLDTEXTSTYLE3
 11
-7.044195017643634E-15
 21
1.0
 31
0.0
 73
     1
 44
1.0
  0
ENDBLK
  5
1CB
330
1C9
100
AcDbEntity
  8
0
100
AcDbBlockEnd
  0
BLOCK
  5
1D5
330
1D4
100
AcDbEntity
  8
0
100
AcDbBlockBegin
  2
_None
 70
     0
 10
0.0
 20
0.0
 30
0.0
  3
_None
  1

  0
ENDBLK
  5
1D6
330
1D4
100
AcDbEntity
  8
0
100
AcDbBlockEnd
  0
BLOCK
  5
1D8
330
1D7
100
AcDbEntity
  8
0
100
AcDbBlockBegin
  2
_D_2
 70
     0
 10
0.0
 20
0.0
 30
0.0
  3
_D_2
  1

  0
SOLID
  5
1DA
330
1D7
100
AcDbEntity
  8
LAYER_1
100
AcDbTrace
 10
231.0074817251
 20
111.28312888
 30
0.0
 11
229.2036661392
 21
114.0951596999
 31
0.0
 12
228.4418448794
 22
113.4229362489
 32
0.0
 13
228.4418448794
 23
113.4229362489
 33
0.0
  0
LINE
  5
1DB
330
1D7
100
AcDbEntity
  8
LAYER_1
100
AcDbLine
 10
231.0074817251
 20
111.28312888
 30
0.0
 11
221.4823116109
 21
122.0778684645
 31
0.0
  0
LINE
  5
1DC
330
1D7
100
AcDbEntity
  8
LAYER_1
100
AcDbLine
 10
231.0074817251
 20
111.28312888
 30
0.0
 11
233.3232121174
 21
108.6587446188
 31
0.0
  0
MTEXT
  5
1DD
330
1D7
100
AcDbEntity
  8
LAYER_1
100
AcDbMText
 10
224.500790279
 20
124.7413438151
 30
0.0
 40
3.175
 41
0.0
 71
     1
 72
     1
  1
%%c
  7
SLDTEXTSTYLE3
 11
0.6616372549403254
 21
-0.7498240746168602
 31
0.0
 73
     1
 44
1.0
  0
MTEXT
  5
1DE
330
1D7
100
AcDbEntity
  8
LAYER_1
100
AcDbMText
 10
227.6716777704
 20
121.147822197
 30
0.0
 40
3.175
 41
0.0
 71
     1
 72
     1
  1
3,5
  7
SLDTEXTSTYLE3
 11
0.6616372549403254
 21
-0.7498240746168602
 31
0.0
 73
     1
 44
1.0
  0
ENDBLK
  5
1D9
330
1D7
100
AcDbEntity
  8
0
100
AcDbBlockEnd
  0
BLOCK
  5
1E1
330
1E0
100
AcDbEntity
  8
0
100
AcDbBlockBegin
  2
_D_3
 70
     0
 10
0.0
 20
0.0
 30
0.0
  3
_D_3
  1

  0
SOLID
  5
1E3
330
1E0
100
AcDbEntity
  8
LAYER_1
100
AcDbTrace
 10
70.3742485375
 20
210.2709367494
 30
0.0
 11
69.8662485375
 21
206.9689367494
 31
0.0
 12
70.8822485375
 22
206.9689367494
 32
0.0
 13
70.8822485375
 23
206.9689367494
 33
0.0
  0
SOLID
  5
1E4
330
1E0
100
AcDbEntity
  8
LAYER_1
100
AcDbTrace
 10
70.3742485375
 20
109.7709367494
 30
0.0
 11
70.8822485375
 21
113.0729367494
 31
0.0
 12
69.8662485375
 22
113.0729367494
 32
0.0
 13
69.8662485375
 23
113.0729367494
 33
0.0
  0
LINE
  5
1E5
330
1E0
100
AcDbEntity
  8
LAYER_1
100
AcDbLine
 10
75.6153469213
 20
210.2709367494
 30
0.0
 11
69.3742485375
 21
210.2709367494
 31
0.0
  0
LINE
  5
1E6
330
1E0
100
AcDbEntity
  8
LAYER_1
100
AcDbLine
 10
75.6153469213
 20
109.7709367494
 30
0.0
 11
69.3742485375
 21
109.7709367494
 31
0.0
  0
LINE
  5
1E7
330
1E0
100
AcDbEntity
  8
LAYER_1
100
AcDbLine
 10
70.3742485375
 20
210.2709367494
 30
0.0
 11
70.3742485375
 21
109.7709367494
 31
0.0
  0
MTEXT
  5
1E8
330
1E0
100
AcDbEntity
  8
LAYER_1
100
AcDbMText
 10
66.2814589294
 20
152.4177003483
 30
0.0
 40
3.175
 41
0.0
 71
     1
 72
     1
  1
100,5
  7
SLDTEXTSTYLE3
 11
-7.044195017643634E-15
 21
1.0
 31
0.0
 73
     1
 44
1.0
  0
ENDBLK
  5
1E2
330
1E0
100
AcDbEntity
  8
0
100
AcDbBlockEnd
  0
BLOCK
  5
1EB
330
1EA
100
AcDbEntity
  8
0
100
AcDbBlockBegin
  2
_D_4
 70
     0
 10
0.0
 20
0.0
 30
0.0
  3
_D_4
  1

  0
SOLID
  5
1ED
330
1EA
100
AcDbEntity
  8
LAYER_1
100
AcDbTrace
 10
60.6153469213
 20
218.1209367494
 30
0.0
 11
60.1073469213
 21
214.8189367494
 31
0.0
 12
61.1233469213
 22
214.8189367494
 32
0.0
 13
61.1233469213
 23
214.8189367494
 33
0.0
  0
SOLID
  5
1EE
330
1EA
100
AcDbEntity
  8
LAYER_1
100
AcDbTrace
 10
60.6153469213
 20
101.9209367494
 30
0.0
 11
61.1233469213
 21
105.2229367494
 31
0.0
 12
60.1073469213
 22
105.2229367494
 32
0.0
 13
60.1073469213
 23
105.2229367494
 33
0.0
  0
LINE
  5
1EF
330
1EA
100
AcDbEntity
  8
LAYER_1
100
AcDbLine
 10
90.1153469213
 20
218.1209367494
 30
0.0
 11
59.6153469213
 21
218.1209367494
 31
0.0
  0
LINE
  5
1F0
330
1EA
100
AcDbEntity
  8
LAYER_1
100
AcDbLine
 10
90.1153469213
 20
101.9209367494
 30
0.0
 11
59.6153469213
 21
101.9209367494
 31
0.0
  0
LINE
  5
1F1
330
1EA
100
AcDbEntity
  8
LAYER_1
100
AcDbLine
 10
60.6153469213
 20
218.1209367494
 30
0.0
 11
60.6153469213
 21
101.9209367494
 31
0.0
  0
MTEXT
  5
1F2
330
1EA
100
AcDbEntity
  8
LAYER_1
100
AcDbMText
 10
56.5225573132
 20
152.4116789455
 30
0.0
 40
3.175
 41
0.0
 71
     1
 72
     1
  1
116,2
  7
SLDTEXTSTYLE3
 11
-7.044195017643634E-15
 21
1.0
 31
0.0
 73
     1
 44
1.0
  0
ENDBLK
  5
1EC
330
1EA
100
AcDbEntity
  8
0
100
AcDbBlockEnd
  0
BLOCK
  5
1F5
330
1F4
100
AcDbEntity
  8
0
100
AcDbBlockBegin
  2
_D_5
 70
     0
 10
0.0
 20
0.0
 30
0.0
  3
_D_5
  1

  0
SOLID
  5
1F7
330
1F4
100
AcDbEntity
  8
LAYER_1
100
AcDbTrace
 10
50.8452707634
 20
227.5209367494
 30
0.0
 11
50.3372707634
 21
224.2189367494
 31
0.0
 12
51.3532707634
 22
224.2189367494
 32
0.0
 13
51.3532707634
 23
224.2189367494
 33
0.0
  0
SOLID
  5
1F8
330
1F4
100
AcDbEntity
  8
LAYER_1
100
AcDbTrace
 10
50.8452707634
 20
92.5209367494
 30
0.0
 11
51.3532707634
 21
95.8229367494
 31
0.0
 12
50.3372707634
 22
95.8229367494
 32
0.0
 13
50.3372707634
 23
95.8229367494
 33
0.0
  0
LINE
  5
1F9
330
1F4
100
AcDbEntity
  8
LAYER_1
100
AcDbLine
 10
84.6153469213
 20
227.5209367494
 30
0.0
 11
49.8452707634
 21
227.5209367494
 31
0.0
  0
LINE
  5
1FA
330
1F4
100
AcDbEntity
  8
LAYER_1
100
AcDbLine
 10
84.6153469213
 20
92.5209367494
 30
0.0
 11
49.8452707634
 21
92.5209367494
 31
0.0
  0
LINE
  5
1FB
330
1F4
100
AcDbEntity
  8
LAYER_1
100
AcDbLine
 10
50.8452707634
 20
227.5209367494
 30
0.0
 11
50.8452707634
 21
92.5209367494
 31
0.0
  0
MTEXT
  5
1FC
330
1F4
100
AcDbEntity
  8
LAYER_1
100
AcDbMText
 10
46.7524811553
 20
154.1757097765
 30
0.0
 40
3.175
 41
0.0
 71
     1
 72
     1
  1
135
  7
SLDTEXTSTYLE3
 11
-7.044195017643634E-15
 21
1.0
 31
0.0
 73
     1
 44
1.0
  0
ENDBLK
  5
1F6
330
1F4
100
AcDbEntity
  8
0
100
AcDbBlockEnd
  0
BLOCK
  5
1FF
330
1FE
100
AcDbEntity
  8
0
100
AcDbBlockBegin
  2
_D_6
 70
     0
 10
0.0
 20
0.0
 30
0.0
  3
_D_6
  1

  0
SOLID
  5
201
330
1FE
100
AcDbEntity
  8
LAYER_1
100
AcDbTrace
 10
132.0653469213
 20
82.5709367494
 30
0.0
 11
135.3673469213
 21
82.0629367494
 31
0.0
 12
135.3673469213
 22
83.0789367494
 32
0.0
 13
135.3673469213
 23
83.0789367494
 33
0.0
  0
SOLID
  5
202
330
1FE
100
AcDbEntity
  8
LAYER_1
100
AcDbTrace
 10
232.1653469213
 20
82.5709367494
 30
0.0
 11
228.8633469213
 21
83.0789367494
 31
0.0
 12
228.8633469213
 22
82.0629367494
 32
0.0
 13
228.8633469213
 23
82.0629367494
 33
0.0
  0
LINE
  5
203
330
1FE
100
AcDbEntity
  8
LAYER_1
100
AcDbLine
 10
132.0653469213
 20
108.9709367494
 30
0.0
 11
132.0653469213
 21
81.5709367494
 31
0.0
  0
LINE
  5
204
330
1FE
100
AcDbEntity
  8
LAYER_1
100
AcDbLine
 10
232.1653469213
 20
108.9709367494
 30
0.0
 11
232.1653469213
 21
81.5709367494
 31
0.0
  0
LINE
  5
205
330
1FE
100
AcDbEntity
  8
LAYER_1
100
AcDbLine
 10
132.0653469213
 20
82.5709367494
 30
0.0
 11
232.1653469213
 21
82.5709367494
 31
0.0
  0
MTEXT
  5
206
330
1FE
100
AcDbEntity
  8
LAYER_1
100
AcDbMText
 10
178.7911129136
 20
86.6637263575
 30
0.0
 40
3.175
 41
0.0
 71
     1
 72
     1
  1
100,1
  7
SLDTEXTSTYLE3
 73
     1
 44
1.0
  0
ENDBLK
  5
200
330
1FE
100
AcDbEntity
  8
0
100
AcDbBlockEnd
  0
BLOCK
  5
209
330
208
100
AcDbEntity
  8
0
100
AcDbBlockBegin
  2
_D_7
 70
     0
 10
0.0
 20
0.0
 30
0.0
  3
_D_7
  1

  0
SOLID
  5
20B
330
208
100
AcDbEntity
  8
LAYER_1
100
AcDbTrace
 10
91.1153469213
 20
74.3007084909
 30
0.0
 11
94.4173469213
 21
73.7927084909
 31
0.0
 12
94.4173469213
 22
74.8087084909
 32
0.0
 13
94.4173469213
 23
74.8087084909
 33
0.0
  0
SOLID
  5
20C
330
208
100
AcDbEntity
  8
LAYER_1
100
AcDbTrace
 10
273.1153469213
 20
74.3007084909
 30
0.0
 11
269.8133469213
 21
74.8087084909
 31
0.0
 12
269.8133469213
 22
73.7927084909
 32
0.0
 13
269.8133469213
 23
73.7927084909
 33
0.0
  0
LINE
  5
20D
330
208
100
AcDbEntity
  8
LAYER_1
100
AcDbLine
 10
91.1153469213
 20
100.9209367494
 30
0.0
 11
91.1153469213
 21
73.3007084909
 31
0.0
  0
LINE
  5
20E
330
208
100
AcDbEntity
  8
LAYER_1
100
AcDbLine
 10
273.1153469213
 20
100.9209367494
 30
0.0
 11
273.1153469213
 21
73.3007084909
 31
0.0
  0
LINE
  5
20F
330
208
100
AcDbEntity
  8
LAYER_1
100
AcDbLine
 10
91.1153469213
 20
74.3007084909
 30
0.0
 11
273.1153469213
 21
74.3007084909
 31
0.0
  0
MTEXT
  5
210
330
208
100
AcDbEntity
  8
LAYER_1
100
AcDbMText
 10
180.5510731248
 20
78.393498099
 30
0.0
 40
3.175
 41
0.0
 71
     1
 72
     1
  1
182
  7
SLDTEXTSTYLE3
 73
     1
 44
1.0
  0
ENDBLK
  5
20A
330
208
100
AcDbEntity
  8
0
100
AcDbBlockEnd
  0
BLOCK
  5
213
330
212
100
AcDbEntity
  8
0
100
AcDbBlockBegin
  2
_D_8
 70
     0
 10
0.0
 20
0.0
 30
0.0
  3
_D_8
  1

  0
SOLID
  5
215
330
212
100
AcDbEntity
  8
LAYER_1
100
AcDbTrace
 10
85.6153469213
 20
67.5697921455
 30
0.0
 11
88.9173469213
 21
67.0617921455
 31
0.0
 12
88.9173469213
 22
68.0777921455
 32
0.0
 13
88.9173469213
 23
68.0777921455
 33
0.0
  0
SOLID
  5
216
330
212
100
AcDbEntity
  8
LAYER_1
100
AcDbTrace
 10
278.6153469213
 20
67.5697921455
 30
0.0
 11
275.3133469213
 21
68.0777921455
 31
0.0
 12
275.3133469213
 22
67.0617921455
 32
0.0
 13
275.3133469213
 23
67.0617921455
 33
0.0
  0
LINE
  5
217
330
212
100
AcDbEntity
  8
LAYER_1
100
AcDbLine
 10
85.6153469213
 20
91.5209367494
 30
0.0
 11
85.6153469213
 21
66.5697921455
 31
0.0
  0
LINE
  5
218
330
212
100
AcDbEntity
  8
LAYER_1
100
AcDbLine
 10
278.6153469213
 20
91.5209367494
 30
0.0
 11
278.6153469213
 21
66.5697921455
 31
0.0
  0
LINE
  5
219
330
212
100
AcDbEntity
  8
LAYER_1
100
AcDbLine
 10
85.6153469213
 20
67.5697921455
 30
0.0
 11
278.6153469213
 21
67.5697921455
 31
0.0
  0
MTEXT
  5
21A
330
212
100
AcDbEntity
  8
LAYER_1
100
AcDbMText
 10
180.5510731248
 20
71.6625817536
 30
0.0
 40
3.175
 41
0.0
 71
     1
 72
     1
  1
193
  7
SLDTEXTSTYLE3
 73
     1
 44
1.0
  0
ENDBLK
  5
214
330
212
100
AcDbEntity
  8
0
100
AcDbBlockEnd
  0
BLOCK
  5
21D
330
21C
100
AcDbEntity
  8
0
100
AcDbBlockBegin
  2
_D_9
 70
     0
 10
0.0
 20
0.0
 30
0.0
  3
_D_9
  1

  0
SOLID
  5
21F
330
21C
100
AcDbEntity
  8
LAYER_1
100
AcDbTrace
 10
76.6153469213
 20
60.9108408434
 30
0.0
 11
79.9173469213
 21
60.4028408434
 31
0.0
 12
79.9173469213
 22
61.4188408434
 32
0.0
 13
79.9173469213
 23
61.4188408434
 33
0.0
  0
SOLID
  5
220
330
21C
100
AcDbEntity
  8
LAYER_1
100
AcDbTrace
 10
287.6153469213
 20
60.9108408434
 30
0.0
 11
284.3133469213
 21
61.4188408434
 31
0.0
 12
284.3133469213
 22
60.4028408434
 32
0.0
 13
284.3133469213
 23
60.4028408434
 33
0.0
  0
LINE
  5
221
330
21C
100
AcDbEntity
  8
LAYER_1
100
AcDbLine
 10
76.6153469213
 20
108.7709367494
 30
0.0
 11
76.6153469213
 21
59.9108408434
 31
0.0
  0
LINE
  5
222
330
21C
100
AcDbEntity
  8
LAYER_1
100
AcDbLine
 10
287.6153469213
 20
108.7709367494
 30
0.0
 11
287.6153469213
 21
59.9108408434
 31
0.0
  0
LINE
  5
223
330
21C
100
AcDbEntity
  8
LAYER_1
100
AcDbLine
 10
76.6153469213
 20
60.9108408434
 30
0.0
 11
287.6153469213
 21
60.9108408434
 31
0.0
  0
MTEXT
  5
224
330
21C
100
AcDbEntity
  8
LAYER_1
100
AcDbMText
 10
180.5510731248
 20
65.0036304516
 30
0.0
 40
3.175
 41
0.0
 71
     1
 72
     1
  1
211
  7
SLDTEXTSTYLE3
 73
     1
 44
1.0
  0
ENDBLK
  5
21E
330
21C
100
AcDbEntity
  8
0
100
AcDbBlockEnd
  0
BLOCK
  5
228
330
227
100
AcDbEntity
  8
0
100
AcDbBlockBegin
  2
_D_10
 70
     0
 10
0.0
 20
0.0
 30
0.0
  3
_D_10
  1

  0
SOLID
  5
22A
330
227
100
AcDbEntity
  8
LAYER_1
100
AcDbTrace
 10
190.1153469213
 20
204.6048596498
 30
0.0
 11
193.4173469213
 21
204.0968596498
 31
0.0
 12
193.4173469213
 22
205.1128596498
 32
0.0
 13
193.4173469213
 23
205.1128596498
 33
0.0
  0
SOLID
  5
22B
330
227
100
AcDbEntity
  8
LAYER_1
100
AcDbTrace
 10
174.1153469213
 20
204.6048596498
 30
0.0
 11
170.8133469213
 21
205.1128596498
 31
0.0
 12
170.8133469213
 22
204.0968596498
 32
0.0
 13
170.8133469213
 23
204.0968596498
 33
0.0
  0
LINE
  5
22C
330
227
100
AcDbEntity
  8
LAYER_1
100
AcDbLine
 10
190.1153469213
 20
217.0209367494
 30
0.0
 11
190.1153469213
 21
203.6048596498
 31
0.0
  0
LINE
  5
22D
330
227
100
AcDbEntity
  8
LAYER_1
100
AcDbLine
 10
174.1153469213
 20
217.0209367494
 30
0.0
 11
174.1153469213
 21
203.6048596498
 31
0.0
  0
LINE
  5
22E
330
227
100
AcDbEntity
  8
LAYER_1
100
AcDbLine
 10
190.1153469213
 20
204.6048596498
 30
0.0
 11
196.4653469213
 21
204.6048596498
 31
0.0
  0
LINE
  5
22F
330
227
100
AcDbEntity
  8
LAYER_1
100
AcDbLine
 10
190.1153469213
 20
204.6048596498
 30
0.0
 11
174.1153469213
 21
204.6048596498
 31
0.0
  0
LINE
  5
230
330
227
100
AcDbEntity
  8
LAYER_1
100
AcDbLine
 10
174.1153469213
 20
204.6048596498
 30
0.0
 11
167.7653469213
 21
204.6048596498
 31
0.0
  0
MTEXT
  5
231
330
227
100
AcDbEntity
  8
LAYER_1
100
AcDbMText
 10
181.7240592392
 20
208.6976492579
 30
0.0
 40
3.175
 41
0.0
 71
     1
 72
     1
  1
16
  7
SLDTEXTSTYLE3
 73
     1
 44
1.0
  0
ENDBLK
  5
229
330
227
100
AcDbEntity
  8
0
100
AcDbBlockEnd
  0
BLOCK
  5
234
330
233
100
AcDbEntity
  8
0
100
AcDbBlockBegin
  2
_D_11
 70
     0
 10
0.0
 20
0.0
 30
0.0
  3
_D_11
  1

  0
SOLID
  5
236
330
233
100
AcDbEntity
  8
LAYER_1
100
AcDbTrace
 10
167.0365202603
 20
218.0209367494
 30
0.0
 11
167.5445202603
 21
221.3229367494
 31
0.0
 12
166.5285202603
 22
221.3229367494
 32
0.0
 13
166.5285202603
 23
221.3229367494
 33
0.0
  0
SOLID
  5
237
330
233
100
AcDbEntity
  8
LAYER_1
100
AcDbTrace
 10
167.0365202603
 20
227.5209367494
 30
0.0
 11
166.5285202603
 21
224.2189367494
 31
0.0
 12
167.5445202603
 22
224.2189367494
 32
0.0
 13
167.5445202603
 23
224.2189367494
 33
0.0
  0
LINE
  5
238
330
233
100
AcDbEntity
  8
LAYER_1
100
AcDbLine
 10
173.1153469213
 20
218.0209367494
 30
0.0
 11
166.0365202603
 21
218.0209367494
 31
0.0
  0
LINE
  5
239
330
233
100
AcDbEntity
  8
LAYER_1
100
AcDbLine
 10
167.0365202603
 20
218.0209367494
 30
0.0
 11
167.0365202603
 21
227.5209367494
 31
0.0
  0
LINE
  5
23A
330
233
100
AcDbEntity
  8
LAYER_1
100
AcDbLine
 10
167.0365202603
 20
227.5209367494
 30
0.0
 11
167.0365202603
 21
242.7061650878
 31
0.0
  0
MTEXT
  5
23B
330
233
100
AcDbEntity
  8
LAYER_1
100
AcDbMText
 10
162.9437306522
 20
236.8441744684
 30
0.0
 40
3.175
 41
0.0
 71
     1
 72
     1
  1
9,5
  7
SLDTEXTSTYLE3
 11
8.498927327108557E-15
 21
1.0
 31
0.0
 73
     1
 44
1.0
  0
ENDBLK
  5
235
330
233
100
AcDbEntity
  8
0
100
AcDbBlockEnd
  0
BLOCK
  5
23E
330
23D
100
AcDbEntity
  8
0
100
AcDbBlockBegin
  2
_D_12
 70
     0
 10
0.0
 20
0.0
 30
0.0
  3
_D_12
  1

  0
SOLID
  5
240
330
23D
100
AcDbEntity
  8
LAYER_1
100
AcDbTrace
 10
98.9653469213
 20
189.8457950543
 30
0.0
 11
102.2673469213
 21
189.3377950543
 31
0.0
 12
102.2673469213
 22
190.3537950543
 32
0.0
 13
102.2673469213
 23
190.3537950543
 33
0.0
  0
SOLID
  5
241
330
23D
100
AcDbEntity
  8
LAYER_1
100
AcDbTrace
 10
265.2653469213
 20
189.8457950543
 30
0.0
 11
261.9633469213
 21
190.3537950543
 31
0.0
 12
261.9633469213
 22
189.3377950543
 32
0.0
 13
261.9633469213
 23
189.3377950543
 33
0.0
  0
LINE
  5
242
330
23D
100
AcDbEntity
  8
LAYER_1
100
AcDbLine
 10
98.9653469213
 20
180.5209367494
 30
0.0
 11
98.9653469213
 21
190.8457950543
 31
0.0
  0
LINE
  5
243
330
23D
100
AcDbEntity
  8
LAYER_1
100
AcDbLine
 10
265.2653469213
 20
180.5209367494
 30
0.0
 11
265.2653469213
 21
190.8457950543
 31
0.0
  0
LINE
  5
244
330
23D
100
AcDbEntity
  8
LAYER_1
100
AcDbLine
 10
98.9653469213
 20
189.8457950543
 30
0.0
 11
265.2653469213
 21
189.8457950543
 31
0.0
  0
MTEXT
  5
245
330
23D
100
AcDbEntity
  8
LAYER_1
100
AcDbMText
 10
178.7930636966
 20
193.9385846625
 30
0.0
 40
3.175
 41
0.0
 71
     1
 72
     1
  1
166,3
  7
SLDTEXTSTYLE3
 73
     1
 44
1.0
  0
ENDBLK
  5
23F
330
23D
100
AcDbEntity
  8
0
100
AcDbBlockEnd
  0
BLOCK
  5
253
330
252
100
AcDbEntity
  8
0
100
AcDbBlockBegin
  2
_D_13
 70
     0
 10
0.0
 20
0.0
 30
0.0
  3
_D_13
  1

  0
SOLID
  5
255
330
252
100
AcDbEntity
  8
LAYER_1
100
AcDbTrace
 10
354.9001743311
 20
239.2106787551
 30
0.0
 11
351.5981743311
 21
239.7186787551
 31
0.0
 12
351.5981743311
 22
238.7026787551
 32
0.0
 13
351.5981743311
 23
238.7026787551
 33
0.0
  0
SOLID
  5
256
330
252
100
AcDbEntity
  8
LAYER_1
100
AcDbTrace
 10
356.5001743311
 20
239.2106787551
 30
0.0
 11
359.8021743311
 21
238.7026787551
 31
0.0
 12
359.8021743311
 22
239.7186787551
 32
0.0
 13
359.8021743311
 23
239.7186787551
 33
0.0
  0
LINE
  5
257
330
252
100
AcDbEntity
  8
LAYER_1
100
AcDbLine
 10
354.9001743311
 20
228.5209367494
 30
0.0
 11
354.9001743311
 21
240.2106787551
 31
0.0
  0
LINE
  5
258
330
252
100
AcDbEntity
  8
LAYER_1
100
AcDbLine
 10
356.5001743311
 20
228.5209367494
 30
0.0
 11
356.5001743311
 21
240.2106787551
 31
0.0
  0
LINE
  5
259
330
252
100
AcDbEntity
  8
LAYER_1
100
AcDbLine
 10
354.9001743311
 20
239.2106787551
 30
0.0
 11
339.7639885781
 21
239.2106787551
 31
0.0
  0
LINE
  5
25A
330
252
100
AcDbEntity
  8
LAYER_1
100
AcDbLine
 10
354.9001743311
 20
239.2106787551
 30
0.0
 11
356.5001743311
 21
239.2106787551
 31
0.0
  0
LINE
  5
25B
330
252
100
AcDbEntity
  8
LAYER_1
100
AcDbLine
 10
356.5001743311
 20
239.2106787551
 30
0.0
 11
362.8501743311
 21
239.2106787551
 31
0.0
  0
MTEXT
  5
25C
330
252
100
AcDbEntity
  8
LAYER_1
100
AcDbMText
 10
339.7639885781
 20
243.3034683632
 30
0.0
 40
3.175
 41
0.0
 71
     1
 72
     1
  1
1,6
  7
SLDTEXTSTYLE3
 73
     1
 44
1.0
  0
ENDBLK
  5
254
330
252
100
AcDbEntity
  8
0
100
AcDbBlockEnd
  0
ENDSEC
  0
SECTION
  2
ENTITIES
  0
HATCH
  5
E9
330
1F
100
AcDbEntity
  8
LAYER_2
100
AcDbHatch
 10
0.0
 20
0.0
 30
0.0
210
0.0
220
0.0
230
1.0
  2
SOLID
 70
     1
 71
     0
 91
        4
 92
        0
 93
       18
 72
     4
 94
        3
 73
     1
 74
     0
 95
        8
 96
        4
 40
0.9444444444444448
 40
0.9444444444444448
 40
0.9444444444444448
 40
0.9444444444444448
 40
1.0
 40
1.0
 40
1.0
 40
1.0
 10
329.3633810246067
 20
51.31246345129614
 42
1.0
 10
329.0411543579401
 20
51.31246345129614
 42
1.0
 10
328.77829435794
 20
51.04960345129614
 42
1.0
 10
328.77829435794
 20
50.72737678462948
 42
1.0
 72
     1
 10
328.77829435794
 20
50.72737678462948
 11
328.77829435794
 21
44.2912501179628
 72
     1
 10
328.77829435794
 20
44.2912501179628
 11
329.51630435794
 21
44.2912501179628
 72
     4
 94
        3
 73
     1
 74
     0
 95
        8
 96
        4
 40
0.777777777777778
 40
0.777777777777778
 40
0.777777777777778
 40
0.777777777777778
 40
0.8333333333333336
 40
0.8333333333333336
 40
0.8333333333333336
 40
0.8333333333333336
 10
329.51630435794
 20
44.2912501179628
 42
1.0
 10
329.4996210246067
 20
44.36192678462947
 42
1.0
 10
329.4913010246067
 20
44.4376301179628
 42
1.0
 10
329.49160435794
 20
44.51849011796281
 42
1.0
 72
     4
 94
        3
 73
     1
 74
     0
 95
        8
 96
        4
 40
0.7222222222222224
 40
0.7222222222222224
 40
0.7222222222222224
 40
0.7222222222222224
 40
0.777777777777778
 40
0.777777777777778
 40
0.777777777777778
 40
0.777777777777778
 10
329.49160435794
 20
44.51849011796281
 42
1.0
 10
329.4893510246067
 20
45.08282011796281
 42
1.0
 10
329.91098435794
 20
45.40435345129614
 42
1.0
 10
330.61896435794
 20
45.41774345129613
 42
1.0
 72
     4
 94
        3
 73
     1
 74
     0
 95
        8
 96
        4
 40
0.6666666666666669
 40
0.6666666666666669
 40
0.6666666666666669
 40
0.6666666666666669
 40
0.7222222222222224
 40
0.7222222222222224
 40
0.7222222222222224
 40
0.7222222222222224
 10
330.61896435794
 20
45.41774345129613
 42
1.0
 10
331.2394110246067
 20
45.42905345129613
 42
1.0
 10
331.8558276912734
 20
45.08282011796281
 42
1.0
 10
331.9985676912734
 20
44.99715011796281
 42
1.0
 72
     4
 94
        3
 73
     1
 74
     0
 95
        8
 96
        4
 40
0.6111111111111113
 40
0.6111111111111113
 40
0.6111111111111113
 40
0.6111111111111113
 40
0.6666666666666669
 40
0.6666666666666669
 40
0.6666666666666669
 40
0.6666666666666669
 10
331.9985676912734
 20
44.99715011796281
 42
1.0
 10
331.9481276912733
 20
44.84509345129614
 42
1.0
 10
331.92078435794
 20
44.6826801179628
 42
1.0
 10
331.92078435794
 20
44.51363678462948
 42
1.0
 72
     4
 94
        3
 73
     1
 74
     0
 95
        8
 96
        4
 40
0.5555555555555557
 40
0.5555555555555557
 40
0.5555555555555557
 40
0.5555555555555557
 40
0.6111111111111113
 40
0.6111111111111113
 40
0.6111111111111113
 40
0.6111111111111113
 10
331.92078435794
 20
44.51363678462948
 42
1.0
 10
331.92078435794
 20
44.43806345129614
 42
1.0
 10
331.9261576912734
 20
44.36387678462947
 42
1.0
 10
331.9367310246067
 20
44.2912501179628
 42
1.0
 72
     1
 10
331.9367310246067
 20
44.2912501179628
 11
334.9812010246067
 21
44.2912501179628
 72
     4
 94
        3
 73
     1
 74
     0
 95
        8
 96
        4
 40
0.4444444444444445
 40
0.4444444444444445
 40
0.4444444444444445
 40
0.4444444444444445
 40
0.5000000000000001
 40
0.5000000000000001
 40
0.5000000000000001
 40
0.5000000000000001
 10
334.9812010246067
 20
44.2912501179628
 42
1.0
 10
334.9917310246067
 20
44.36387678462947
 42
1.0
 10
334.9974510246067
 20
44.43806345129614
 42
1.0
 10
334.9974510246067
 20
44.51363678462948
 42
1.0
 72
     4
 94
        3
 73
     1
 74
     0
 95
        8
 96
        4
 40
0.388888888888889
 40
0.388888888888889
 40
0.388888888888889
 40
0.388888888888889
 40
0.4444444444444445
 40
0.4444444444444445
 40
0.4444444444444445
 40
0.4444444444444445
 10
334.9974510246067
 20
44.51363678462948
 42
1.0
 10
334.9974510246067
 20
44.67964678462947
 42
1.0
 10
334.97097435794
 20
44.83933011796281
 42
1.0
 10
334.9223110246067
 20
44.98904678462947
 42
1.0
 72
     4
 94
        3
 73
     1
 74
     0
 95
        8
 96
        4
 40
0.3333333333333334
 40
0.3333333333333334
 40
0.3333333333333334
 40
0.3333333333333334
 40
0.388888888888889
 40
0.388888888888889
 40
0.388888888888889
 40
0.388888888888889
 10
334.9223110246067
 20
44.98904678462947
 42
1.0
 10
335.06977435794
 20
45.0772301179628
 42
1.0
 10
335.6825076912733
 20
45.41934678462948
 42
1.0
 10
336.29918435794
 20
45.40790678462947
 42
1.0
 72
     4
 94
        3
 73
     1
 74
     0
 95
        8
 96
        4
 40
0.2777777777777778
 40
0.2777777777777778
 40
0.2777777777777778
 40
0.2777777777777778
 40
0.3333333333333334
 40
0.3333333333333334
 40
0.3333333333333334
 40
0.3333333333333334
 10
336.29918435794
 20
45.40790678462947
 42
1.0
 10
337.0072076912733
 20
45.3945601179628
 42
1.0
 10
337.4287976912734
 20
45.07307011796281
 42
1.0
 10
337.42654435794
 20
44.5087401179628
 42
1.0
 72
     4
 94
        3
 73
     1
 74
     0
 95
        8
 96
        4
 40
0.2222222222222222
 40
0.2222222222222222
 40
0.2222222222222222
 40
0.2222222222222222
 40
0.2777777777777778
 40
0.2777777777777778
 40
0.2777777777777778
 40
0.2777777777777778
 10
337.42654435794
 20
44.5087401179628
 42
1.0
 10
337.4268910246067
 20
44.4315201179628
 42
1.0
 10
337.4190910246067
 20
44.35915345129614
 42
1.0
 10
337.4038376912733
 20
44.2912501179628
 42
1.0
 72
     1
 10
337.4038376912733
 20
44.2912501179628
 11
338.1400276912733
 21
44.2912501179628
 72
     1
 10
338.1400276912733
 20
44.2912501179628
 11
338.1400276912733
 21
50.72737678462948
 72
     4
 94
        3
 73
     1
 74
     0
 95
        8
 96
        4
 40
0.0555555555555556
 40
0.0555555555555556
 40
0.0555555555555556
 40
0.0555555555555556
 40
0.1111111111111111
 40
0.1111111111111111
 40
0.1111111111111111
 40
0.1111111111111111
 10
338.1400276912733
 20
50.72737678462948
 42
1.0
 10
338.1400276912733
 20
51.04960345129614
 42
1.0
 10
337.8771676912734
 20
51.31246345129614
 42
1.0
 10
337.5549410246067
 20
51.31246345129614
 42
1.0
 72
     1
 10
337.5549410246067
 20
51.31246345129614
 11
329.3633810246067
 21
51.31246345129614
 97
        0
 92
        0
 93
        6
 72
     4
 94
        3
 73
     1
 74
     0
 95
        8
 96
        4
 40
0.6666666666666666
 40
0.6666666666666666
 40
0.6666666666666666
 40
0.6666666666666666
 40
0.8333333333333333
 40
0.8333333333333333
 40
0.8333333333333333
 40
0.8333333333333333
 10
333.9428043579401
 20
45.9742301179628
 42
1.0
 10
333.7906610246067
 20
46.0245401179628
 42
1.0
 10
333.6279876912733
 20
46.0519701179628
 42
1.0
 10
333.4591176912734
 20
46.0519701179628
 42
1.0
 72
     4
 94
        3
 73
     1
 74
     0
 95
        8
 96
        4
 40
0.8333333333333333
 40
0.8333333333333333
 40
0.8333333333333333
 40
0.8333333333333333
 40
1.0
 40
1.0
 40
1.0
 40
1.0
 10
333.4591176912734
 20
46.0519701179628
 42
1.0
 10
333.29319435794
 20
46.0519701179628
 42
1.0
 10
333.1333376912734
 20
46.02562345129614
 42
1.0
 10
332.98353435794
 20
45.97691678462947
 42
1.0
 72
     4
 94
        3
 73
     1
 74
     0
 95
        8
 96
        4
 40
0.0
 40
0.0
 40
0.0
 40
0.0
 40
0.1666666666666667
 40
0.1666666666666667
 40
0.1666666666666667
 40
0.1666666666666667
 10
332.98353435794
 20
45.97691678462947
 42
1.0
 10
332.8953510246067
 20
46.12438011796281
 42
1.0
 10
332.5534510246067
 20
46.7369401179628
 42
1.0
 10
332.5648476912734
 20
47.35379011796281
 42
1.0
 72
     4
 94
        3
 73
     1
 74
     0
 95
        8
 96
        4
 40
0.1666666666666667
 40
0.1666666666666667
 40
0.1666666666666667
 40
0.1666666666666667
 40
0.3333333333333333
 40
0.3333333333333333
 40
0.3333333333333333
 40
0.3333333333333333
 10
332.5648476912734
 20
47.35379011796281
 42
1.0
 10
332.57819435794
 20
48.06168345129614
 42
1.0
 10
332.8996410246067
 20
48.48336011796281
 42
1.0
 10
333.4639710246067
 20
48.48115011796281
 42
1.0
 72
     4
 94
        3
 73
     1
 74
     0
 95
        8
 96
        4
 40
0.3333333333333333
 40
0.3333333333333333
 40
0.3333333333333333
 40
0.3333333333333333
 40
0.5
 40
0.5
 40
0.5
 40
0.5
 10
333.4639710246067
 20
48.48115011796281
 42
1.0
 10
334.0283010246067
 20
48.48336011796281
 42
1.0
 10
334.3497910246067
 20
48.06168345129614
 42
1.0
 10
334.3631376912733
 20
47.35379011796281
 42
1.0
 72
     4
 94
        3
 73
     1
 74
     0
 95
        8
 96
        4
 40
0.5
 40
0.5
 40
0.5
 40
0.5
 40
0.6666666666666666
 40
0.6666666666666666
 40
0.6666666666666666
 40
0.6666666666666666
 10
334.3631376912733
 20
47.35379011796281
 42
1.0
 10
334.3744910246067
 20
46.73321345129615
 42
1.0
 10
334.0283010246067
 20
46.11675345129615
 42
1.0
 10
333.9428043579401
 20
45.9742301179628
 42
1.0
 97
        0
 92
        0
 93
        5
 72
     4
 94
        3
 73
     1
 74
     0
 95
        8
 96
        4
 40
0.6000000000000001
 40
0.6000000000000001
 40
0.6000000000000001
 40
0.6000000000000001
 40
0.8
 40
0.8
 40
0.8
 40
0.8
 10
332.0909543579401
 20
47.16030678462947
 42
1.0
 10
332.53672435794
 20
46.7307001179628
 42
1.0
 10
332.7278676912734
 20
46.05188345129614
 42
1.0
 10
332.7688176912733
 20
45.88856011796281
 42
1.0
 72
     4
 94
        3
 73
     1
 74
     0
 95
        8
 96
        4
 40
0.8
 40
0.8
 40
0.8
 40
0.8
 40
1.0
 40
1.0
 40
1.0
 40
1.0
 10
332.7688176912733
 20
45.88856011796281
 42
1.0
 10
332.4760143579401
 20
45.74118345129614
 42
1.0
 10
332.23668435794
 20
45.50332678462947
 42
1.0
 10
332.08783435794
 20
45.21152011796281
 42
1.0
 72
     4
 94
        3
 73
     1
 74
     0
 95
        8
 96
        4
 40
0.0
 40
0.0
 40
0.0
 40
0.0
 40
0.2
 40
0.2
 40
0.2
 40
0.2
 10
332.08783435794
 20
45.21152011796281
 42
1.0
 10
331.91922435794
 20
45.2540301179628
 42
1.0
 10
331.2464310246067
 20
45.44560678462947
 42
1.0
 10
330.8192943579401
 20
45.8886901179628
 42
1.0
 72
     4
 94
        3
 73
     1
 74
     0
 95
        8
 96
        4
 40
0.2
 40
0.2
 40
0.2
 40
0.2
 40
0.4
 40
0.4
 40
0.4
 40
0.4
 10
330.8192943579401
 20
45.8886901179628
 42
1.0
 10
330.3280676912734
 20
46.39885345129613
 42
1.0
 10
330.2573476912734
 20
46.92422678462948
 42
1.0
 10
330.6579210246067
 20
47.32176678462947
 42
1.0
 72
     4
 94
        3
 73
     1
 74
     0
 95
        8
 96
        4
 40
0.4
 40
0.4
 40
0.4
 40
0.4
 40
0.6000000000000001
 40
0.6000000000000001
 40
0.6000000000000001
 40
0.6000000000000001
 10
330.6579210246067
 20
47.32176678462947
 42
1.0
 10
331.0555910246067
 20
47.72225345129615
 42
1.0
 10
331.5808776912734
 20
47.65153345129613
 42
1.0
 10
332.0909543579401
 20
47.16030678462947
 42
1.0
 97
        0
 92
        0
 93
        5
 72
     4
 94
        3
 73
     1
 74
     0
 95
        8
 96
        4
 40
0.6000000000000001
 40
0.6000000000000001
 40
0.6000000000000001
 40
0.6000000000000001
 40
0.8
 40
0.8
 40
0.8
 40
0.8
 10
336.1057443579401
 20
45.88175678462947
 42
1.0
 10
335.6760076912734
 20
45.43594345129614
 42
1.0
 10
334.99723435794
 20
45.24475678462947
 42
1.0
 10
334.8340410246067
 20
45.20389345129613
 42
1.0
 72
     4
 94
        3
 73
     1
 74
     0
 95
        8
 96
        4
 40
0.8
 40
0.8
 40
0.8
 40
0.8
 40
1.0
 40
1.0
 40
1.0
 40
1.0
 10
334.8340410246067
 20
45.20389345129613
 42
1.0
 10
334.6866643579401
 20
45.49656678462947
 42
1.0
 10
334.4488076912734
 20
45.73585345129614
 42
1.0
 10
334.1569576912734
 20
45.88470345129614
 42
1.0
 72
     4
 94
        3
 73
     1
 74
     0
 95
        8
 96
        4
 40
0.0
 40
0.0
 40
0.0
 40
0.0
 40
0.2
 40
0.2
 40
0.2
 40
0.2
 10
334.1569576912734
 20
45.88470345129614
 42
1.0
 10
334.1993810246067
 20
46.05309678462947
 42
1.0
 10
334.3909576912733
 20
46.72619345129615
 42
1.0
 10
334.8341276912734
 20
47.15341678462947
 42
1.0
 72
     4
 94
        3
 73
     1
 74
     0
 95
        8
 96
        4
 40
0.2
 40
0.2
 40
0.2
 40
0.2
 40
0.4
 40
0.4
 40
0.4
 40
0.4
 10
334.8341276912734
 20
47.15341678462947
 42
1.0
 10
335.3441610246066
 20
47.64464345129615
 42
1.0
 10
335.86966435794
 20
47.71532011796281
 42
1.0
 10
336.26707435794
 20
47.31474678462948
 42
1.0
 72
     4
 94
        3
 73
     1
 74
     0
 95
        8
 96
        4
 40
0.4
 40
0.4
 40
0.4
 40
0.4
 40
0.6000000000000001
 40
0.6000000000000001
 40
0.6000000000000001
 40
0.6000000000000001
 10
336.26707435794
 20
47.31474678462948
 42
1.0
 10
336.6676910246067
 20
46.91725011796283
 42
1.0
 10
336.59688435794
 20
46.39187678462949
 42
1.0
 10
336.1057443579401
 20
45.88175678462947
 42
1.0
 97
        0
 75
     0
 76
     1
 98
        1
 10
0.0
 20
0.0
  0
LINE
  5
EA
330
1F
100
AcDbEntity
  8
LAYER_2
 62
    22
100
AcDbLine
 10
329.3633810246
 20
51.3124634513
 30
0.0
 11
337.5549410246
 21
51.3124634513
 31
0.0
  0
LINE
  5
EB
330
1F
100
AcDbEntity
  8
LAYER_1
100
AcDbLine
 10
326.6
 20
60.1594049943
 30
0.0
 11
292.0670608947
 21
60.1594049943
 31
0.0
  0
LINE
  5
EC
330
1F
100
AcDbEntity
  8
LAYER_1
100
AcDbLine
 10
326.6
 20
60.1594049943
 30
0.0
 11
414.5946922531
 21
60.1594049943
 31
0.0
  0
LINE
  5
ED
330
1F
100
AcDbEntity
  8
LAYER_1
100
AcDbLine
 10
410.0
 20
287.0
 30
0.0
 11
410.0
 21
60.1594049943
 31
0.0
  0
LINE
  5
EE
330
1F
100
AcDbEntity
  8
LAYER_2
 62
    22
100
AcDbLine
 10
338.1400276913
 20
50.7273767846
 30
0.0
 11
338.1400276913
 21
44.291250118
 31
0.0
  0
LINE
  5
EF
330
1F
100
AcDbEntity
  8
LAYER_2
 62
    22
100
AcDbLine
 10
338.1400276913
 20
44.291250118
 30
0.0
 11
337.4038376913
 21
44.291250118
 31
0.0
  0
LINE
  5
F0
330
1F
100
AcDbEntity
  8
LAYER_2
 62
    22
100
AcDbLine
 10
334.9812010246
 20
44.291250118
 30
0.0
 11
331.9367310246
 21
44.291250118
 31
0.0
  0
LINE
  5
F1
330
1F
100
AcDbEntity
  8
LAYER_2
 62
    22
100
AcDbLine
 10
329.5163043579
 20
44.291250118
 30
0.0
 11
328.7782943579
 21
44.291250118
 31
0.0
  0
LINE
  5
F2
330
1F
100
AcDbEntity
  8
LAYER_2
 62
    22
100
AcDbLine
 10
328.7782943579
 20
44.291250118
 30
0.0
 11
328.7782943579
 21
50.7273767846
 31
0.0
  0
LINE
  5
F3
330
1F
100
AcDbEntity
  8
LAYER_1
100
AcDbLine
 10
302.4114926113
 20
47.5910362722
 30
0.0
 11
302.4114926113
 21
36.1395934648
 31
0.0
  0
LINE
  5
F4
330
1F
100
AcDbEntity
  8
LAYER_1
100
AcDbLine
 10
396.0272857057
 20
51.8315308646
 30
0.0
 11
396.0272857057
 21
60.230556186
 31
0.0
  0
LINE
  5
F5
330
1F
100
AcDbEntity
  8
LAYER_1
100
AcDbLine
 10
292.0670608947
 20
42.2443133994
 30
0.0
 11
255.4457443212
 21
42.2443133994
 31
0.0
  0
LINE
  5
F6
330
1F
100
AcDbEntity
  8
LAYER_1
100
AcDbLine
 10
318.1055217366
 20
47.5910362722
 30
0.0
 11
318.1055217366
 21
36.1495721832
 31
0.0
  0
LINE
  5
F7
330
1F
100
AcDbEntity
  8
LAYER_1
100
AcDbLine
 10
255.4457443212
 20
42.2443133994
 30
0.0
 11
255.4457443212
 21
10.0
 31
0.0
  0
LINE
  5
F8
330
1F
100
AcDbEntity
  8
LAYER_1
100
AcDbLine
 10
292.0670608947
 20
60.1594049943
 30
0.0
 11
292.0670608947
 21
5.0
 31
0.0
  0
LINE
  5
F9
330
1F
100
AcDbEntity
  8
LAYER_1
100
AcDbLine
 10
326.6
 20
60.1594049943
 30
0.0
 11
326.6
 21
5.0
 31
0.0
  0
LINE
  5
FA
330
1F
100
AcDbEntity
  8
LAYER_1
100
AcDbLine
 10
370.8
 20
5.0
 30
0.0
 11
370.8
 21
10.0
 31
0.0
  0
LINE
  5
FB
330
1F
100
AcDbEntity
  8
LAYER_1
100
AcDbLine
 10
373.9638051508
 20
51.8315308646
 30
0.0
 11
373.9638051508
 21
60.25
 31
0.0
  0
LINE
  5
FC
330
1F
100
AcDbEntity
  8
LAYER_1
100
AcDbLine
 10
402.0
 20
9.25
 30
0.0
 11
402.0
 21
22.0
 31
0.0
  0
LINE
  5
FD
330
1F
100
AcDbEntity
  8
LAYER_1
100
AcDbLine
 10
414.5946922531
 20
13.5
 30
0.0
 11
402.0
 21
13.5
 31
0.0
  0
LINE
  5
FE
330
1F
100
AcDbEntity
  8
LAYER_1
100
AcDbLine
 10
326.6
 20
36.1495721832
 30
0.0
 11
292.0670608947
 21
36.1495721832
 31
0.0
  0
LINE
  5
FF
330
1F
100
AcDbEntity
  8
LAYER_1
100
AcDbLine
 10
326.6
 20
47.5910362722
 30
0.0
 11
292.0670608947
 21
47.5910362722
 31
0.0
  0
LINE
  5
100
330
1F
100
AcDbEntity
  8
LAYER_1
100
AcDbLine
 10
292.0670608947
 20
43.7510178819
 30
0.0
 11
326.6
 21
43.7510178819
 31
0.0
  0
LINE
  5
101
330
1F
100
AcDbEntity
  8
LAYER_1
100
AcDbLine
 10
292.0670608947
 20
39.9410178819
 30
0.0
 11
326.6
 21
39.9410178819
 31
0.0
  0
LINE
  5
102
330
1F
100
AcDbEntity
  8
LAYER_1
100
AcDbLine
 10
292.0670608947
 20
17.5195223149
 30
0.0
 11
326.6
 21
17.5195223149
 31
0.0
  0
LINE
  5
103
330
1F
100
AcDbEntity
  8
LAYER_1
100
AcDbLine
 10
326.6
 20
43.7510178819
 30
0.0
 11
414.5946922531
 21
43.7510178819
 31
0.0
  0
LINE
  5
104
330
1F
100
AcDbEntity
  8
LAYER_1
100
AcDbLine
 10
414.5946922531
 20
292.0
 30
0.0
 11
5.0
 21
292.0
 31
0.0
  0
LINE
  5
105
330
1F
100
AcDbEntity
  8
LAYER_1
100
AcDbLine
 10
410.0
 20
287.0
 30
0.0
 11
10.0
 21
287.0
 31
0.0
  0
LINE
  5
106
330
1F
100
AcDbEntity
  8
LAYER_1
100
AcDbLine
 10
5.0
 20
292.0
 30
0.0
 11
5.0
 21
5.0
 31
0.0
  0
LINE
  5
107
330
1F
100
AcDbEntity
  8
LAYER_1
100
AcDbLine
 10
10.0
 20
287.0
 30
0.0
 11
10.0
 21
10.0
 31
0.0
  0
LINE
  5
108
330
1F
100
AcDbEntity
  8
LAYER_1
100
AcDbLine
 10
10.0
 20
48.5
 30
0.0
 11
5.0
 21
48.5
 31
0.0
  0
LINE
  5
109
330
1F
100
AcDbEntity
  8
LAYER_1
100
AcDbLine
 10
5.0
 20
98.5
 30
0.0
 11
10.0
 21
98.5
 31
0.0
  0
LINE
  5
10A
330
1F
100
AcDbEntity
  8
LAYER_1
100
AcDbLine
 10
5.0
 20
198.5
 30
0.0
 11
10.0
 21
198.5
 31
0.0
  0
LINE
  5
10B
330
1F
100
AcDbEntity
  8
LAYER_1
100
AcDbLine
 10
5.0
 20
148.5
 30
0.0
 11
15.0
 21
148.5
 31
0.0
  0
LINE
  5
10C
330
1F
100
AcDbEntity
  8
LAYER_1
100
AcDbLine
 10
5.0
 20
5.0
 30
0.0
 11
414.5946922531
 21
5.0
 31
0.0
  0
LINE
  5
10D
330
1F
100
AcDbEntity
  8
LAYER_1
100
AcDbLine
 10
10.0
 20
10.0
 30
0.0
 11
227.8
 21
10.0
 31
0.0
  0
LINE
  5
10E
330
1F
100
AcDbEntity
  8
LAYER_1
100
AcDbLine
 10
60.0
 20
5.0
 30
0.0
 11
60.0
 21
10.0
 31
0.0
  0
LINE
  5
10F
330
1F
100
AcDbEntity
  8
LAYER_1
100
AcDbLine
 10
110.0
 20
10.0
 30
0.0
 11
110.0
 21
5.0
 31
0.0
  0
LINE
  5
110
330
1F
100
AcDbEntity
  8
LAYER_1
100
AcDbLine
 10
160.0
 20
5.0
 30
0.0
 11
160.0
 21
10.0
 31
0.0
  0
LINE
  5
111
330
1F
100
AcDbEntity
  8
LAYER_1
100
AcDbLine
 10
10.0
 20
248.5
 30
0.0
 11
5.0
 21
248.5
 31
0.0
  0
LINE
  5
112
330
1F
100
AcDbEntity
  8
LAYER_1
100
AcDbLine
 10
60.0
 20
287.0
 30
0.0
 11
60.0
 21
292.0
 31
0.0
  0
LINE
  5
113
330
1F
100
AcDbEntity
  8
LAYER_1
100
AcDbLine
 10
110.0
 20
292.0
 30
0.0
 11
110.0
 21
287.0
 31
0.0
  0
LINE
  5
114
330
1F
100
AcDbEntity
  8
LAYER_1
100
AcDbLine
 10
160.0
 20
287.0
 30
0.0
 11
160.0
 21
292.0
 31
0.0
  0
LINE
  5
115
330
1F
100
AcDbEntity
  8
LAYER_1
100
AcDbLine
 10
260.0
 20
287.0
 30
0.0
 11
260.0
 21
292.0
 31
0.0
  0
LINE
  5
116
330
1F
100
AcDbEntity
  8
LAYER_1
100
AcDbLine
 10
414.5946922531
 20
5.0
 30
0.0
 11
414.5946922531
 21
292.0
 31
0.0
  0
LINE
  5
117
330
1F
100
AcDbEntity
  8
LAYER_1
100
AcDbLine
 10
210.0
 20
5.0
 30
0.0
 11
210.0
 21
15.0
 31
0.0
  0
LINE
  5
118
330
1F
100
AcDbEntity
  8
LAYER_1
100
AcDbLine
 10
410.0
 20
198.5
 30
0.0
 11
415.0
 21
198.5
 31
0.0
  0
LINE
  5
119
330
1F
100
AcDbEntity
  8
LAYER_1
100
AcDbLine
 10
410.0
 20
98.5
 30
0.0
 11
415.0
 21
98.5
 31
0.0
  0
LINE
  5
11A
330
1F
100
AcDbEntity
  8
LAYER_1
100
AcDbLine
 10
415.0
 20
148.5
 30
0.0
 11
405.0
 21
148.5
 31
0.0
  0
LINE
  5
11B
330
1F
100
AcDbEntity
  8
LAYER_1
100
AcDbLine
 10
310.0
 20
292.0
 30
0.0
 11
310.0
 21
287.0
 31
0.0
  0
LINE
  5
11C
330
1F
100
AcDbEntity
  8
LAYER_1
100
AcDbLine
 10
360.0
 20
287.0
 30
0.0
 11
360.0
 21
292.0
 31
0.0
  0
LINE
  5
11D
330
1F
100
AcDbEntity
  8
LAYER_1
100
AcDbLine
 10
210.0
 20
292.0
 30
0.0
 11
210.0
 21
282.0
 31
0.0
  0
LINE
  5
11E
330
1F
100
AcDbEntity
  8
LAYER_1
100
AcDbLine
 10
415.0
 20
248.5
 30
0.0
 11
410.0
 21
248.5
 31
0.0
  0
LINE
  5
11F
330
1F
100
AcDbEntity
  8
LAYER_1
100
AcDbLine
 10
414.5946922531
 20
51.8315308646
 30
0.0
 11
326.6
 21
51.8315308646
 31
0.0
  0
LINE
  5
120
330
1F
100
AcDbEntity
  8
LAYER_1
100
AcDbLine
 10
227.8
 20
10.0
 30
0.0
 11
402.0
 21
10.0
 31
0.0
  0
LINE
  5
121
330
1F
100
AcDbEntity
  8
LAYER_1
100
AcDbLine
 10
402.0
 20
10.0
 30
0.0
 11
402.0
 21
5.0
 31
0.0
  0
LINE
  5
122
330
1F
100
AcDbEntity
  8
LAYER_1
100
AcDbLine
 10
326.6
 20
22.0
 30
0.0
 11
414.5946922531
 21
22.0
 31
0.0
  0
LINE
  5
123
330
1F
100
AcDbEntity
  8
LAYER_1
100
AcDbLine
 10
260.0
 20
10.0
 30
0.0
 11
260.0
 21
5.0
 31
0.0
  0
SPLINE
  5
124
330
1F
100
AcDbEntity
  8
LAYER_2
 62
    22
100
AcDbSpline
210
0.0
220
0.0
230
1.0
 70
     8
 71
     3
 72
     8
 73
     4
 74
     0
 42
0.00000001
 43
0.00000001
 40
0.0555555555555556
 40
0.0555555555555556
 40
0.0555555555555556
 40
0.0555555555555556
 40
0.1111111111111111
 40
0.1111111111111111
 40
0.1111111111111111
 40
0.1111111111111111
 10
337.5549410246067
 20
51.31246345129614
 30
0.0
 10
337.8771676912734
 20
51.31246345129614
 30
0.0
 10
338.1400276912733
 20
51.04960345129614
 30
0.0
 10
338.1400276912733
 20
50.72737678462948
 30
0.0
  0
SPLINE
  5
125
330
1F
100
AcDbEntity
  8
LAYER_2
 62
    22
100
AcDbSpline
210
0.0
220
0.0
230
1.0
 70
     8
 71
     3
 72
     8
 73
     4
 74
     0
 42
0.00000001
 43
0.00000001
 40
0.2222222222222222
 40
0.2222222222222222
 40
0.2222222222222222
 40
0.2222222222222222
 40
0.2777777777777778
 40
0.2777777777777778
 40
0.2777777777777778
 40
0.2777777777777778
 10
337.4038376912733
 20
44.2912501179628
 30
0.0
 10
337.4190910246067
 20
44.35915345129614
 30
0.0
 10
337.4268910246067
 20
44.4315201179628
 30
0.0
 10
337.42654435794
 20
44.5087401179628
 30
0.0
  0
SPLINE
  5
126
330
1F
100
AcDbEntity
  8
LAYER_2
 62
    22
100
AcDbSpline
210
0.0
220
0.0
230
1.0
 70
     8
 71
     3
 72
     8
 73
     4
 74
     0
 42
0.00000001
 43
0.00000001
 40
0.2777777777777778
 40
0.2777777777777778
 40
0.2777777777777778
 40
0.2777777777777778
 40
0.3333333333333334
 40
0.3333333333333334
 40
0.3333333333333334
 40
0.3333333333333334
 10
337.42654435794
 20
44.5087401179628
 30
0.0
 10
337.4287976912734
 20
45.07307011796281
 30
0.0
 10
337.0072076912733
 20
45.3945601179628
 30
0.0
 10
336.29918435794
 20
45.40790678462947
 30
0.0
  0
SPLINE
  5
127
330
1F
100
AcDbEntity
  8
LAYER_2
 62
    22
100
AcDbSpline
210
0.0
220
0.0
230
1.0
 70
     8
 71
     3
 72
     8
 73
     4
 74
     0
 42
0.00000001
 43
0.00000001
 40
0.3333333333333334
 40
0.3333333333333334
 40
0.3333333333333334
 40
0.3333333333333334
 40
0.388888888888889
 40
0.388888888888889
 40
0.388888888888889
 40
0.388888888888889
 10
336.29918435794
 20
45.40790678462947
 30
0.0
 10
335.6825076912733
 20
45.41934678462948
 30
0.0
 10
335.06977435794
 20
45.0772301179628
 30
0.0
 10
334.9223110246067
 20
44.98904678462947
 30
0.0
  0
SPLINE
  5
128
330
1F
100
AcDbEntity
  8
LAYER_2
 62
    22
100
AcDbSpline
210
0.0
220
0.0
230
1.0
 70
     8
 71
     3
 72
     8
 73
     4
 74
     0
 42
0.00000001
 43
0.00000001
 40
0.388888888888889
 40
0.388888888888889
 40
0.388888888888889
 40
0.388888888888889
 40
0.4444444444444445
 40
0.4444444444444445
 40
0.4444444444444445
 40
0.4444444444444445
 10
334.9223110246067
 20
44.98904678462947
 30
0.0
 10
334.97097435794
 20
44.83933011796281
 30
0.0
 10
334.9974510246067
 20
44.67964678462947
 30
0.0
 10
334.9974510246067
 20
44.51363678462948
 30
0.0
  0
SPLINE
  5
129
330
1F
100
AcDbEntity
  8
LAYER_2
 62
    22
100
AcDbSpline
210
0.0
220
0.0
230
1.0
 70
     8
 71
     3
 72
     8
 73
     4
 74
     0
 42
0.00000001
 43
0.00000001
 40
0.4444444444444445
 40
0.4444444444444445
 40
0.4444444444444445
 40
0.4444444444444445
 40
0.5000000000000001
 40
0.5000000000000001
 40
0.5000000000000001
 40
0.5000000000000001
 10
334.9974510246067
 20
44.51363678462948
 30
0.0
 10
334.9974510246067
 20
44.43806345129614
 30
0.0
 10
334.9917310246067
 20
44.36387678462947
 30
0.0
 10
334.9812010246067
 20
44.2912501179628
 30
0.0
  0
SPLINE
  5
12A
330
1F
100
AcDbEntity
  8
LAYER_2
 62
    22
100
AcDbSpline
210
0.0
220
0.0
230
1.0
 70
     8
 71
     3
 72
     8
 73
     4
 74
     0
 42
0.00000001
 43
0.00000001
 40
0.5555555555555557
 40
0.5555555555555557
 40
0.5555555555555557
 40
0.5555555555555557
 40
0.6111111111111113
 40
0.6111111111111113
 40
0.6111111111111113
 40
0.6111111111111113
 10
331.9367310246067
 20
44.2912501179628
 30
0.0
 10
331.9261576912734
 20
44.36387678462947
 30
0.0
 10
331.92078435794
 20
44.43806345129614
 30
0.0
 10
331.92078435794
 20
44.51363678462948
 30
0.0
  0
SPLINE
  5
12B
330
1F
100
AcDbEntity
  8
LAYER_2
 62
    22
100
AcDbSpline
210
0.0
220
0.0
230
1.0
 70
     8
 71
     3
 72
     8
 73
     4
 74
     0
 42
0.00000001
 43
0.00000001
 40
0.6111111111111113
 40
0.6111111111111113
 40
0.6111111111111113
 40
0.6111111111111113
 40
0.6666666666666669
 40
0.6666666666666669
 40
0.6666666666666669
 40
0.6666666666666669
 10
331.92078435794
 20
44.51363678462948
 30
0.0
 10
331.92078435794
 20
44.6826801179628
 30
0.0
 10
331.9481276912733
 20
44.84509345129614
 30
0.0
 10
331.9985676912734
 20
44.99715011796281
 30
0.0
  0
SPLINE
  5
12C
330
1F
100
AcDbEntity
  8
LAYER_2
 62
    22
100
AcDbSpline
210
0.0
220
0.0
230
1.0
 70
     8
 71
     3
 72
     8
 73
     4
 74
     0
 42
0.00000001
 43
0.00000001
 40
0.6666666666666669
 40
0.6666666666666669
 40
0.6666666666666669
 40
0.6666666666666669
 40
0.7222222222222224
 40
0.7222222222222224
 40
0.7222222222222224
 40
0.7222222222222224
 10
331.9985676912734
 20
44.99715011796281
 30
0.0
 10
331.8558276912734
 20
45.08282011796281
 30
0.0
 10
331.2394110246067
 20
45.42905345129613
 30
0.0
 10
330.61896435794
 20
45.41774345129613
 30
0.0
  0
SPLINE
  5
12D
330
1F
100
AcDbEntity
  8
LAYER_2
 62
    22
100
AcDbSpline
210
0.0
220
0.0
230
1.0
 70
     8
 71
     3
 72
     8
 73
     4
 74
     0
 42
0.00000001
 43
0.00000001
 40
0.7222222222222224
 40
0.7222222222222224
 40
0.7222222222222224
 40
0.7222222222222224
 40
0.777777777777778
 40
0.777777777777778
 40
0.777777777777778
 40
0.777777777777778
 10
330.61896435794
 20
45.41774345129613
 30
0.0
 10
329.91098435794
 20
45.40435345129614
 30
0.0
 10
329.4893510246067
 20
45.08282011796281
 30
0.0
 10
329.49160435794
 20
44.51849011796281
 30
0.0
  0
SPLINE
  5
12E
330
1F
100
AcDbEntity
  8
LAYER_2
 62
    22
100
AcDbSpline
210
0.0
220
0.0
230
1.0
 70
     8
 71
     3
 72
     8
 73
     4
 74
     0
 42
0.00000001
 43
0.00000001
 40
0.777777777777778
 40
0.777777777777778
 40
0.777777777777778
 40
0.777777777777778
 40
0.8333333333333336
 40
0.8333333333333336
 40
0.8333333333333336
 40
0.8333333333333336
 10
329.49160435794
 20
44.51849011796281
 30
0.0
 10
329.4913010246067
 20
44.4376301179628
 30
0.0
 10
329.4996210246067
 20
44.36192678462947
 30
0.0
 10
329.51630435794
 20
44.2912501179628
 30
0.0
  0
SPLINE
  5
12F
330
1F
100
AcDbEntity
  8
LAYER_2
 62
    22
100
AcDbSpline
210
0.0
220
0.0
230
1.0
 70
     8
 71
     3
 72
     8
 73
     4
 74
     0
 42
0.00000001
 43
0.00000001
 40
0.9444444444444448
 40
0.9444444444444448
 40
0.9444444444444448
 40
0.9444444444444448
 40
1.0
 40
1.0
 40
1.0
 40
1.0
 10
328.77829435794
 20
50.72737678462948
 30
0.0
 10
328.77829435794
 20
51.04960345129614
 30
0.0
 10
329.0411543579401
 20
51.31246345129614
 30
0.0
 10
329.3633810246067
 20
51.31246345129614
 30
0.0
  0
SPLINE
  5
130
330
1F
100
AcDbEntity
  8
LAYER_2
 62
    22
100
AcDbSpline
210
0.0
220
0.0
230
1.0
 70
     8
 71
     3
 72
     8
 73
     4
 74
     0
 42
0.00000001
 43
0.00000001
 40
0.0
 40
0.0
 40
0.0
 40
0.0
 40
0.2
 40
0.2
 40
0.2
 40
0.2
 10
332.08783435794
 20
45.21152011796281
 30
0.0
 10
331.91922435794
 20
45.2540301179628
 30
0.0
 10
331.2464310246067
 20
45.44560678462947
 30
0.0
 10
330.8192943579401
 20
45.8886901179628
 30
0.0
  0
SPLINE
  5
131
330
1F
100
AcDbEntity
  8
LAYER_2
 62
    22
100
AcDbSpline
210
0.0
220
0.0
230
1.0
 70
     8
 71
     3
 72
     8
 73
     4
 74
     0
 42
0.00000001
 43
0.00000001
 40
0.2
 40
0.2
 40
0.2
 40
0.2
 40
0.4
 40
0.4
 40
0.4
 40
0.4
 10
330.8192943579401
 20
45.8886901179628
 30
0.0
 10
330.3280676912734
 20
46.39885345129613
 30
0.0
 10
330.2573476912734
 20
46.92422678462948
 30
0.0
 10
330.6579210246067
 20
47.32176678462947
 30
0.0
  0
SPLINE
  5
132
330
1F
100
AcDbEntity
  8
LAYER_2
 62
    22
100
AcDbSpline
210
0.0
220
0.0
230
1.0
 70
     8
 71
     3
 72
     8
 73
     4
 74
     0
 42
0.00000001
 43
0.00000001
 40
0.4
 40
0.4
 40
0.4
 40
0.4
 40
0.6000000000000001
 40
0.6000000000000001
 40
0.6000000000000001
 40
0.6000000000000001
 10
330.6579210246067
 20
47.32176678462947
 30
0.0
 10
331.0555910246067
 20
47.72225345129615
 30
0.0
 10
331.5808776912734
 20
47.65153345129613
 30
0.0
 10
332.0909543579401
 20
47.16030678462947
 30
0.0
  0
SPLINE
  5
133
330
1F
100
AcDbEntity
  8
LAYER_2
 62
    22
100
AcDbSpline
210
0.0
220
0.0
230
1.0
 70
     8
 71
     3
 72
     8
 73
     4
 74
     0
 42
0.00000001
 43
0.00000001
 40
0.6000000000000001
 40
0.6000000000000001
 40
0.6000000000000001
 40
0.6000000000000001
 40
0.8
 40
0.8
 40
0.8
 40
0.8
 10
332.0909543579401
 20
47.16030678462947
 30
0.0
 10
332.53672435794
 20
46.7307001179628
 30
0.0
 10
332.7278676912734
 20
46.05188345129614
 30
0.0
 10
332.7688176912733
 20
45.88856011796281
 30
0.0
  0
SPLINE
  5
134
330
1F
100
AcDbEntity
  8
LAYER_2
 62
    22
100
AcDbSpline
210
0.0
220
0.0
230
1.0
 70
     8
 71
     3
 72
     8
 73
     4
 74
     0
 42
0.00000001
 43
0.00000001
 40
0.8
 40
0.8
 40
0.8
 40
0.8
 40
1.0
 40
1.0
 40
1.0
 40
1.0
 10
332.7688176912733
 20
45.88856011796281
 30
0.0
 10
332.4760143579401
 20
45.74118345129614
 30
0.0
 10
332.23668435794
 20
45.50332678462947
 30
0.0
 10
332.08783435794
 20
45.21152011796281
 30
0.0
  0
SPLINE
  5
135
330
1F
100
AcDbEntity
  8
LAYER_2
 62
    22
100
AcDbSpline
210
0.0
220
0.0
230
1.0
 70
     8
 71
     3
 72
     8
 73
     4
 74
     0
 42
0.00000001
 43
0.00000001
 40
0.0
 40
0.0
 40
0.0
 40
0.0
 40
0.1666666666666667
 40
0.1666666666666667
 40
0.1666666666666667
 40
0.1666666666666667
 10
332.98353435794
 20
45.97691678462947
 30
0.0
 10
332.8953510246067
 20
46.12438011796281
 30
0.0
 10
332.5534510246067
 20
46.7369401179628
 30
0.0
 10
332.5648476912734
 20
47.35379011796281
 30
0.0
  0
SPLINE
  5
136
330
1F
100
AcDbEntity
  8
LAYER_2
 62
    22
100
AcDbSpline
210
0.0
220
0.0
230
1.0
 70
     8
 71
     3
 72
     8
 73
     4
 74
     0
 42
0.00000001
 43
0.00000001
 40
0.1666666666666667
 40
0.1666666666666667
 40
0.1666666666666667
 40
0.1666666666666667
 40
0.3333333333333333
 40
0.3333333333333333
 40
0.3333333333333333
 40
0.3333333333333333
 10
332.5648476912734
 20
47.35379011796281
 30
0.0
 10
332.57819435794
 20
48.06168345129614
 30
0.0
 10
332.8996410246067
 20
48.48336011796281
 30
0.0
 10
333.4639710246067
 20
48.48115011796281
 30
0.0
  0
SPLINE
  5
137
330
1F
100
AcDbEntity
  8
LAYER_2
 62
    22
100
AcDbSpline
210
0.0
220
0.0
230
1.0
 70
     8
 71
     3
 72
     8
 73
     4
 74
     0
 42
0.00000001
 43
0.00000001
 40
0.3333333333333333
 40
0.3333333333333333
 40
0.3333333333333333
 40
0.3333333333333333
 40
0.5
 40
0.5
 40
0.5
 40
0.5
 10
333.4639710246067
 20
48.48115011796281
 30
0.0
 10
334.0283010246067
 20
48.48336011796281
 30
0.0
 10
334.3497910246067
 20
48.06168345129614
 30
0.0
 10
334.3631376912733
 20
47.35379011796281
 30
0.0
  0
SPLINE
  5
138
330
1F
100
AcDbEntity
  8
LAYER_2
 62
    22
100
AcDbSpline
210
0.0
220
0.0
230
1.0
 70
     8
 71
     3
 72
     8
 73
     4
 74
     0
 42
0.00000001
 43
0.00000001
 40
0.5
 40
0.5
 40
0.5
 40
0.5
 40
0.6666666666666666
 40
0.6666666666666666
 40
0.6666666666666666
 40
0.6666666666666666
 10
334.3631376912733
 20
47.35379011796281
 30
0.0
 10
334.3744910246067
 20
46.73321345129615
 30
0.0
 10
334.0283010246067
 20
46.11675345129615
 30
0.0
 10
333.9428043579401
 20
45.9742301179628
 30
0.0
  0
SPLINE
  5
139
330
1F
100
AcDbEntity
  8
LAYER_2
 62
    22
100
AcDbSpline
210
0.0
220
0.0
230
1.0
 70
     8
 71
     3
 72
     8
 73
     4
 74
     0
 42
0.00000001
 43
0.00000001
 40
0.6666666666666666
 40
0.6666666666666666
 40
0.6666666666666666
 40
0.6666666666666666
 40
0.8333333333333333
 40
0.8333333333333333
 40
0.8333333333333333
 40
0.8333333333333333
 10
333.9428043579401
 20
45.9742301179628
 30
0.0
 10
333.7906610246067
 20
46.0245401179628
 30
0.0
 10
333.6279876912733
 20
46.0519701179628
 30
0.0
 10
333.4591176912734
 20
46.0519701179628
 30
0.0
  0
SPLINE
  5
13A
330
1F
100
AcDbEntity
  8
LAYER_2
 62
    22
100
AcDbSpline
210
0.0
220
0.0
230
1.0
 70
     8
 71
     3
 72
     8
 73
     4
 74
     0
 42
0.00000001
 43
0.00000001
 40
0.8333333333333333
 40
0.8333333333333333
 40
0.8333333333333333
 40
0.8333333333333333
 40
1.0
 40
1.0
 40
1.0
 40
1.0
 10
333.4591176912734
 20
46.0519701179628
 30
0.0
 10
333.29319435794
 20
46.0519701179628
 30
0.0
 10
333.1333376912734
 20
46.02562345129614
 30
0.0
 10
332.98353435794
 20
45.97691678462947
 30
0.0
  0
SPLINE
  5
13B
330
1F
100
AcDbEntity
  8
LAYER_2
 62
    22
100
AcDbSpline
210
0.0
220
0.0
230
1.0
 70
     8
 71
     3
 72
     8
 73
     4
 74
     0
 42
0.00000001
 43
0.00000001
 40
0.0
 40
0.0
 40
0.0
 40
0.0
 40
0.2
 40
0.2
 40
0.2
 40
0.2
 10
334.1569576912734
 20
45.88470345129614
 30
0.0
 10
334.1993810246067
 20
46.05309678462947
 30
0.0
 10
334.3909576912733
 20
46.72619345129615
 30
0.0
 10
334.8341276912734
 20
47.15341678462947
 30
0.0
  0
SPLINE
  5
13C
330
1F
100
AcDbEntity
  8
LAYER_2
 62
    22
100
AcDbSpline
210
0.0
220
0.0
230
1.0
 70
     8
 71
     3
 72
     8
 73
     4
 74
     0
 42
0.00000001
 43
0.00000001
 40
0.2
 40
0.2
 40
0.2
 40
0.2
 40
0.4
 40
0.4
 40
0.4
 40
0.4
 10
334.8341276912734
 20
47.15341678462947
 30
0.0
 10
335.3441610246066
 20
47.64464345129615
 30
0.0
 10
335.86966435794
 20
47.71532011796281
 30
0.0
 10
336.26707435794
 20
47.31474678462948
 30
0.0
  0
SPLINE
  5
13D
330
1F
100
AcDbEntity
  8
LAYER_2
 62
    22
100
AcDbSpline
210
0.0
220
0.0
230
1.0
 70
     8
 71
     3
 72
     8
 73
     4
 74
     0
 42
0.00000001
 43
0.00000001
 40
0.4
 40
0.4
 40
0.4
 40
0.4
 40
0.6000000000000001
 40
0.6000000000000001
 40
0.6000000000000001
 40
0.6000000000000001
 10
336.26707435794
 20
47.31474678462948
 30
0.0
 10
336.6676910246067
 20
46.91725011796283
 30
0.0
 10
336.59688435794
 20
46.39187678462949
 30
0.0
 10
336.1057443579401
 20
45.88175678462947
 30
0.0
  0
SPLINE
  5
13E
330
1F
100
AcDbEntity
  8
LAYER_2
 62
    22
100
AcDbSpline
210
0.0
220
0.0
230
1.0
 70
     8
 71
     3
 72
     8
 73
     4
 74
     0
 42
0.00000001
 43
0.00000001
 40
0.6000000000000001
 40
0.6000000000000001
 40
0.6000000000000001
 40
0.6000000000000001
 40
0.8
 40
0.8
 40
0.8
 40
0.8
 10
336.1057443579401
 20
45.88175678462947
 30
0.0
 10
335.6760076912734
 20
45.43594345129614
 30
0.0
 10
334.99723435794
 20
45.24475678462947
 30
0.0
 10
334.8340410246067
 20
45.20389345129613
 30
0.0
  0
SPLINE
  5
13F
330
1F
100
AcDbEntity
  8
LAYER_2
 62
    22
100
AcDbSpline
210
0.0
220
0.0
230
1.0
 70
     8
 71
     3
 72
     8
 73
     4
 74
     0
 42
0.00000001
 43
0.00000001
 40
0.8
 40
0.8
 40
0.8
 40
0.8
 40
1.0
 40
1.0
 40
1.0
 40
1.0
 10
334.8340410246067
 20
45.20389345129613
 30
0.0
 10
334.6866643579401
 20
45.49656678462947
 30
0.0
 10
334.4488076912734
 20
45.73585345129614
 30
0.0
 10
334.1569576912734
 20
45.88470345129614
 30
0.0
  0
INSERT
  5
140
330
1F
100
AcDbEntity
  8
0
  6
Continuous
 62
     7
100
AcDbBlockReference
  2
Block5
 10
401.9449716881
 20
5.8703766256
 30
0.0
 41
0.8
 42
0.8
 43
0.8
  0
INSERT
  5
141
330
1F
100
AcDbEntity
  8
0
  6
Continuous
 62
     7
100
AcDbBlockReference
  2
Block6
 10
339.2578110246
 20
46.750720118
 30
0.0
 41
0.9
 42
0.9
 43
0.9
  0
INSERT
  5
142
330
1F
100
AcDbEntity
  8
0
  6
Continuous
 62
     7
100
AcDbBlockReference
  2
Block4
 10
339.0438836216
 20
44.3941752369
 30
0.0
 41
0.8
 42
0.8
 43
0.8
  0
MTEXT
  5
144
330
1F
100
AcDbEntity
  8
0
  6
Continuous
 62
     7
370
     0
100
AcDbMText
 10
6.6666666667
 20
124.6680204618
 30
0.0
 40
1.8520833333
 41
0.0
 71
     1
 72
     1
  1
D
  7
SLDTEXTSTYLE1
 73
     1
 44
1.0
  0
MTEXT
  5
145
330
1F
100
AcDbEntity
  8
0
  6
Continuous
 62
     7
370
     0
100
AcDbMText
 10
6.6666666667
 20
74.6680204618
 30
0.0
 40
1.8520833333
 41
0.0
 71
     1
 72
     1
  1
E
  7
SLDTEXTSTYLE1
 73
     1
 44
1.0
  0
MTEXT
  5
146
330
1F
100
AcDbEntity
  8
0
  6
Continuous
 62
     7
370
     0
100
AcDbMText
 10
6.6666666667
 20
24.6680204618
 30
0.0
 40
1.8520833333
 41
0.0
 71
     1
 72
     1
  1
F
  7
SLDTEXTSTYLE1
 73
     1
 44
1.0
  0
MTEXT
  5
147
330
1F
100
AcDbEntity
  8
0
  6
Continuous
 62
     7
370
     0
100
AcDbMText
 10
6.6666666667
 20
174.6680204618
 30
0.0
 40
1.8520833333
 41
0.0
 71
     1
 72
     1
  1
C
  7
SLDTEXTSTYLE1
 73
     1
 44
1.0
  0
MTEXT
  5
148
330
1F
100
AcDbEntity
  8
0
  6
Continuous
 62
     7
370
     0
100
AcDbMText
 10
34.5833333333
 20
8.6680244618
 30
0.0
 40
1.8520833333
 41
0.0
 71
     1
 72
     1
  1
1
  7
SLDTEXTSTYLE1
 73
     1
 44
1.0
  0
MTEXT
  5
149
330
1F
100
AcDbEntity
  8
0
  6
Continuous
 62
     7
370
     0
100
AcDbMText
 10
84.1666666667
 20
8.6680244618
 30
0.0
 40
1.8520833333
 41
0.0
 71
     1
 72
     1
  1
2
  7
SLDTEXTSTYLE1
 73
     1
 44
1.0
  0
MTEXT
  5
14A
330
1F
100
AcDbEntity
  8
0
  6
Continuous
 62
     7
370
     0
100
AcDbMText
 10
134.1666666667
 20
8.6680244618
 30
0.0
 40
1.8520833333
 41
0.0
 71
     1
 72
     1
  1
3
  7
SLDTEXTSTYLE1
 73
     1
 44
1.0
  0
MTEXT
  5
14B
330
1F
100
AcDbEntity
  8
0
  6
Continuous
 62
     7
370
     0
100
AcDbMText
 10
6.6666666667
 20
224.6680204618
 30
0.0
 40
1.8520833333
 41
0.0
 71
     1
 72
     1
  1
B
  7
SLDTEXTSTYLE1
 73
     1
 44
1.0
  0
MTEXT
  5
14C
330
1F
100
AcDbEntity
  8
0
  6
Continuous
 62
     7
370
     0
100
AcDbMText
 10
6.6666666667
 20
274.6680204618
 30
0.0
 40
1.8520833333
 41
0.0
 71
     1
 72
     1
  1
A
  7
SLDTEXTSTYLE1
 73
     1
 44
1.0
  0
MTEXT
  5
14D
330
1F
100
AcDbEntity
  8
0
  6
Continuous
 62
     7
370
     0
100
AcDbMText
 10
134.1666666667
 20
290.6680244618
 30
0.0
 40
1.8520833333
 41
0.0
 71
     1
 72
     1
  1
3
  7
SLDTEXTSTYLE1
 73
     1
 44
1.0
  0
MTEXT
  5
14E
330
1F
100
AcDbEntity
  8
0
  6
Continuous
 62
     7
370
     0
100
AcDbMText
 10
84.1666666667
 20
290.6680244618
 30
0.0
 40
1.8520833333
 41
0.0
 71
     1
 72
     1
  1
2
  7
SLDTEXTSTYLE1
 73
     1
 44
1.0
  0
MTEXT
  5
14F
330
1F
100
AcDbEntity
  8
0
  6
Continuous
 62
     7
370
     0
100
AcDbMText
 10
34.5833333333
 20
290.6680244618
 30
0.0
 40
1.8520833333
 41
0.0
 71
     1
 72
     1
  1
1
  7
SLDTEXTSTYLE1
 73
     1
 44
1.0
  0
MTEXT
  5
150
330
1F
100
AcDbEntity
  8
0
  6
Continuous
 62
     7
370
     0
100
AcDbMText
 10
411.6666666667
 20
174.6680204618
 30
0.0
 40
1.8520833333
 41
0.0
 71
     1
 72
     1
  1
C
  7
SLDTEXTSTYLE1
 73
     1
 44
1.0
  0
MTEXT
  5
151
330
1F
100
AcDbEntity
  8
0
  6
Continuous
 62
     7
370
     0
100
AcDbMText
 10
411.6666666667
 20
124.6680204618
 30
0.0
 40
1.8520833333
 41
0.0
 71
     1
 72
     1
  1
D
  7
SLDTEXTSTYLE1
 73
     1
 44
1.0
  0
MTEXT
  5
152
330
1F
100
AcDbEntity
  8
0
  6
Continuous
 62
     7
370
     0
100
AcDbMText
 10
184.1666666667
 20
290.6680244618
 30
0.0
 40
1.8520833333
 41
0.0
 71
     1
 72
     1
  1
4
  7
SLDTEXTSTYLE1
 73
     1
 44
1.0
  0
MTEXT
  5
153
330
1F
100
AcDbEntity
  8
0
  6
Continuous
 62
     7
370
     0
100
AcDbMText
 10
284.1666666667
 20
290.6680244618
 30
0.0
 40
1.8520833333
 41
0.0
 71
     1
 72
     1
  1
6
  7
SLDTEXTSTYLE1
 73
     1
 44
1.0
  0
MTEXT
  5
154
330
1F
100
AcDbEntity
  8
0
  6
Continuous
 62
     7
370
     0
100
AcDbMText
 10
334.1666666667
 20
290.6680244618
 30
0.0
 40
1.8520833333
 41
0.0
 71
     1
 72
     1
  1
7
  7
SLDTEXTSTYLE1
 73
     1
 44
1.0
  0
MTEXT
  5
155
330
1F
100
AcDbEntity
  8
0
  6
Continuous
 62
     7
370
     0
100
AcDbMText
 10
384.1666666667
 20
290.6680244618
 30
0.0
 40
1.8520833333
 41
0.0
 71
     1
 72
     1
  1
8
  7
SLDTEXTSTYLE1
 73
     1
 44
1.0
  0
MTEXT
  5
156
330
1F
100
AcDbEntity
  8
0
  6
Continuous
 62
     7
370
     0
100
AcDbMText
 10
411.6666666667
 20
274.6680204618
 30
0.0
 40
1.8520833333
 41
0.0
 71
     1
 72
     1
  1
A
  7
SLDTEXTSTYLE1
 73
     1
 44
1.0
  0
MTEXT
  5
157
330
1F
100
AcDbEntity
  8
0
  6
Continuous
 62
     7
370
     0
100
AcDbMText
 10
411.6666666667
 20
224.6680204618
 30
0.0
 40
1.8520833333
 41
0.0
 71
     1
 72
     1
  1
B
  7
SLDTEXTSTYLE1
 73
     1
 44
1.0
  0
INSERT
  5
15D
330
1F
100
AcDbEntity
  8
LAYER_1
100
AcDbBlockReference
  2
SW_NOTE_0_1
 10
363.5363000883
 20
32.7988323377
 30
0.0
  0
MTEXT
  5
15E
330
1F
100
AcDbEntity
  8
LAYER_1
100
AcDbMText
 10
368.6843290122
 20
19.3492324733
 30
0.0
 40
4.7625
 41
0.0
 71
     2
 72
     1
  1
SE-256_pcb_sample
  7
SLDTEXTSTYLE1
 73
     1
 44
1.0
  0
MTEXT
  5
15F
330
1F
100
AcDbEntity
  8
LAYER_1
100
AcDbMText
 10
294.9152624882
 20
8.4515707661
 30
0.0
 40
1.3229166667
 41
0.0
 71
     1
 72
     1
  1
WEIGHT:
  7
SLDTEXTSTYLE1
 73
     1
 44
1.0
  0
MTEXT
  5
160
330
1F
100
AcDbEntity
  8
0
  6
Continuous
 62
     7
370
     0
100
AcDbMText
 10
405.9209848464
 20
19.3004443947
 30
0.0
 40
2.9104166667
 41
0.0
 71
     1
 72
     1
  1
A3
  7
SLDTEXTSTYLE1
 73
     1
 44
1.0
  0
MTEXT
  5
161
330
1F
100
AcDbEntity
  8
LAYER_1
100
AcDbMText
 10
372.2782944278
 20
7.9000873327
 30
0.0
 40
1.5
 41
0.0
 71
     1
 72
     1
  1
SHEET 1 OF 1
  7
SLDTEXTSTYLE1
 73
     1
 44
1.0
  0
MTEXT
  5
162
330
1F
100
AcDbEntity
  8
LAYER_1
100
AcDbMText
 10
327.5554933472
 20
8.0098351215
 30
0.0
 40
1.3229166667
 41
0.0
 71
     1
 72
     1
  1
SCALE:1:1
  7
SLDTEXTSTYLE1
 73
     1
 44
1.0
  0
MTEXT
  5
163
330
1F
100
AcDbEntity
  8
0
  6
Continuous
 62
     7
370
     0
100
AcDbMText
 10
327.5554933472
 20
19.978385674
 30
0.0
 40
1.3229166667
 41
0.0
 71
     1
 72
     1
  1
DWG NO.
  7
SLDTEXTSTYLE1
 73
     1
 44
1.0
  0
MTEXT
  5
164
330
1F
100
AcDbEntity
  8
0
  6
Continuous
 62
     7
370
     0
100
AcDbMText
 10
327.4377141664
 20
41.388082133
 30
0.0
 40
1.3229166667
 41
0.0
 71
     1
 72
     1
  1
TITLE:
  7
SLDTEXTSTYLE1
 73
     1
 44
1.0
  0
MTEXT
  5
165
330
1F
100
AcDbEntity
  8
0
  6
Continuous
 62
     7
370
     0
100
AcDbMText
 10
292.8255040846
 20
16.9867649068
 30
0.0
 40
1.3229166667
 41
0.0
 71
     1
 72
     1
  1
MATERIAL:
  7
SLDTEXTSTYLE1
 73
     1
 44
1.0
  0
MTEXT
  5
166
330
1F
100
AcDbEntity
  8
0
  6
Continuous
 62
     7
370
     0
100
AcDbMText
 10
184.1666666667
 20
8.6680244618
 30
0.0
 40
1.8520833333
 41
0.0
 71
     1
 72
     1
  1
4
  7
SLDTEXTSTYLE1
 73
     1
 44
1.0
  0
MTEXT
  5
167
330
1F
100
AcDbEntity
  8
0
  6
Continuous
 62
     7
370
     0
100
AcDbMText
 10
373.1782835779
 20
46.9640424121
 30
0.0
 40
2.38125
 41
0.0
 71
     1
 72
     1
  1
www.altinkaya.com.tr
  7
SLDTEXTSTYLE0
 73
     1
 44
1.0
  0
MTEXT
  5
168
330
1F
100
AcDbEntity
  8
0
  6
Continuous
 62
     7
370
     0
100
AcDbMText
 10
373.3794022408
 20
50.2302815293
 30
0.0
 40
1.5
 41
0.0
 71
     1
 72
     1
  1
CONTACT:
  7
SLDTEXTSTYLE1
 73
     1
 44
1.0
  0
MTEXT
  5
169
330
1F
100
AcDbEntity
  8
0
  6
Continuous
 62
     7
370
     0
100
AcDbMText
 10
235.0964722989
 20
8.6680244618
 30
0.0
 40
1.8520833333
 41
0.0
 71
     1
 72
     1
  1
5
  7
SLDTEXTSTYLE1
 73
     1
 44
1.0
  0
MTEXT
  5
16A
330
1F
100
AcDbEntity
  8
0
  6
Continuous
 62
     7
370
     0
100
AcDbMText
 10
397.4884718323
 20
59.2425287544
 30
0.0
 40
1.5
 41
0.0
 71
     1
 72
     1
  1
REVISION:
  7
SLDTEXTSTYLE1
 73
     1
 44
1.0
  0
MTEXT
  5
16B
330
1F
100
AcDbEntity
  8
0
  6
Continuous
 62
     7
370
     0
100
AcDbMText
 10
327.3721757467
 20
59.0727632777
 30
0.0
 40
1.3229166667
 41
0.0
 71
     1
 72
     1
  1
ARTICLE NO:
  7
SLDTEXTSTYLE1
 73
     1
 44
1.0
  0
MTEXT
  5
16C
330
1F
100
AcDbEntity
  8
0
  6
Continuous
 62
     7
370
     0
100
AcDbMText
 10
236.9750950622
 20
290.6138672109
 30
0.0
 40
1.8520833333
 41
0.0
 71
     1
 72
     1
  1
5
  7
SLDTEXTSTYLE1
 73
     1
 44
1.0
  0
MTEXT
  5
16D
330
1F
100
AcDbEntity
  8
0
  6
Continuous
 62
     7
370
     0
100
AcDbMText
 10
307.6157438424
 20
45.9955605234
 30
0.0
 40
1.3229166667
 41
0.0
 71
     1
 72
     1
  1
NAME
  7
SLDTEXTSTYLE1
 73
     1
 44
1.0
  0
MTEXT
  5
16E
330
1F
100
AcDbEntity
  8
0
  6
Continuous
 62
     7
370
     0
100
AcDbMText
 10
320.2640892495
 20
45.9955605234
 30
0.0
 40
1.3229166667
 41
0.0
 71
     1
 72
     1
  1
DATE
  7
SLDTEXTSTYLE1
 73
     1
 44
1.0
  0
MTEXT
  5
16F
330
1F
100
AcDbEntity
  8
0
  6
Continuous
 62
     7
370
     0
100
AcDbMText
 10
293.042558421
 20
42.3020796844
 30
0.0
 40
1.3229166667
 41
0.0
 71
     1
 72
     1
  1
DRAWN
  7
SLDTEXTSTYLE1
 73
     1
 44
1.0
  0
MTEXT
  5
170
330
1F
100
AcDbEntity
  8
0
  6
Continuous
 62
     7
370
     0
100
AcDbMText
 10
293.1033805725
 20
38.244148871
 30
0.0
 40
1.3229166667
 41
0.0
 71
     1
 72
     1
  1
CHECKED
  7
SLDTEXTSTYLE1
 73
     1
 44
1.0
  0
INSERT
  5
17A
330
1F
100
AcDbEntity
  8
0
  6
Continuous
 62
     7
370
     0
100
AcDbBlockReference
  2
SW_NOTE_0_2
 10
293.069897002
 20
33.2706730376
 30
0.0
  0
MTEXT
  5
17B
330
1F
100
AcDbEntity
  8
0
  6
Continuous
 62
     7
370
     0
100
AcDbMText
 10
322.9037880942
 20
38.9372411461
 30
0.0
 40
1.3229166667
 41
0.0
 71
     2
 72
     1
  1
22.11.19
  7
SLDTEXTSTYLE1
 73
     1
 44
1.0
  0
MTEXT
  5
17C
330
1F
100
AcDbEntity
  8
0
  6
Continuous
 62
     7
370
     0
100
AcDbMText
 10
322.7592219491
 20
42.654287534
 30
0.0
 40
1.3229166667
 41
0.0
 71
     2
 72
     1
  1
22.11.19
  7
SLDTEXTSTYLE1
 73
     1
 44
1.0
  0
MTEXT
  5
17D
330
1F
100
AcDbEntity
  8
0
  6
Continuous
 62
     7
370
     0
100
AcDbMText
 10
310.7843310451
 20
42.3020796844
 30
0.0
 40
1.3229166667
 41
0.0
 71
     2
 72
     1
  1
Hayri BAL
  7
SLDTEXTSTYLE1
 73
     1
 44
1.0
  0
MTEXT
  5
17F
330
1F
100
AcDbEntity
  8
0
  6
Continuous
 62
     7
370
     0
100
AcDbMText
 10
310.9114171636
 20
38.244148871
 30
0.0
 40
1.3229166667
 41
0.0
 71
     2
 72
     1
  1
Dursun Daþdemir
  7
SLDTEXTSTYLE2
 73
     1
 44
1.0
  0
MTEXT
  5
180
330
1F
100
AcDbEntity
  8
0
  6
Continuous
 62
     7
370
     0
100
AcDbMText
 10
294.4686282226
 20
58.7735961661
 30
0.0
 40
1.0583333333
 41
0.0
 71
     1
 72
     1
  1
PROPRIETARY AND CONFIDENTIAL
  7
SLDTEXTSTYLE1
 73
     1
 44
1.0
  0
INSERT
  5
18A
330
1F
100
AcDbEntity
  8
0
  6
Continuous
 62
     7
370
     0
100
AcDbBlockReference
  2
SW_NOTE_0_3
 10
294.6856505969
 20
55.4572814459
 30
0.0
  0
MTEXT
  5
18B
330
1F
100
AcDbEntity
  8
0
  6
Continuous
 62
     7
370
     0
100
AcDbMText
 10
284.3493443358
 20
8.9837718797
 30
0.0
 40
1.8520833333
 41
0.0
 71
     1
 72
     1
  1
6
  7
SLDTEXTSTYLE1
 73
     1
 44
1.0
  0
INSERT
  5
19A
330
1F
100
AcDbEntity
  8
LAYER_1
100
AcDbBlockReference
  2
SW_NOTE_0_4
 10
256.760371547
 20
38.9956174797
 30
0.0
  0
CIRCLE
  5
19B
330
1F
100
AcDbEntity
  8
0
  6
Continuous
 62
     7
370
    25
100
AcDbCircle
 10
91.1153469213
 20
101.9209367494
 30
0.0
 40
1.749999999999986
  0
CIRCLE
  5
19C
330
1F
100
AcDbEntity
  8
0
  6
Continuous
 62
     7
370
    25
100
AcDbCircle
 10
98.9653469213
 20
140.5209367494
 30
0.0
 40
1.75
  0
CIRCLE
  5
19D
330
1F
100
AcDbEntity
  8
0
  6
Continuous
 62
     7
370
    25
100
AcDbCircle
 10
132.0653469213
 20
109.9709367494
 30
0.0
 40
1.75
  0
CIRCLE
  5
19E
330
1F
100
AcDbEntity
  8
0
  6
Continuous
 62
     7
370
    25
100
AcDbCircle
 10
232.1653469213
 20
109.9709367494
 30
0.0
 40
1.750000000000014
  0
CIRCLE
  5
19F
330
1F
100
AcDbEntity
  8
0
  6
Continuous
 62
     7
370
    25
100
AcDbCircle
 10
265.2653469213
 20
140.5209367494
 30
0.0
 40
1.75
  0
CIRCLE
  5
1A0
330
1F
100
AcDbEntity
  8
0
  6
Continuous
 62
     7
370
    25
100
AcDbCircle
 10
273.1153469213
 20
101.9209367494
 30
0.0
 40
1.749999999999986
  0
CIRCLE
  5
1A1
330
1F
100
AcDbEntity
  8
0
  6
Continuous
 62
     7
370
    25
100
AcDbCircle
 10
273.1153469213
 20
218.1209367494
 30
0.0
 40
1.75
  0
CIRCLE
  5
1A2
330
1F
100
AcDbEntity
  8
0
  6
Continuous
 62
     7
370
    25
100
AcDbCircle
 10
265.2653469213
 20
179.5209367494
 30
0.0
 40
1.749999999999972
  0
CIRCLE
  5
1A3
330
1F
100
AcDbEntity
  8
0
  6
Continuous
 62
     7
370
    25
100
AcDbCircle
 10
232.1653469213
 20
210.0709367494
 30
0.0
 40
1.750000000000028
  0
CIRCLE
  5
1A4
330
1F
100
AcDbEntity
  8
0
  6
Continuous
 62
     7
370
    25
100
AcDbCircle
 10
132.0653469213
 20
210.0709367494
 30
0.0
 40
1.75
  0
CIRCLE
  5
1A5
330
1F
100
AcDbEntity
  8
0
  6
Continuous
 62
     7
370
    25
100
AcDbCircle
 10
98.9653469213
 20
179.5209367494
 30
0.0
 40
1.75
  0
CIRCLE
  5
1A6
330
1F
100
AcDbEntity
  8
0
  6
Continuous
 62
     7
370
    25
100
AcDbCircle
 10
91.1153469213
 20
218.1209367494
 30
0.0
 40
1.75
  0
LINE
  5
1A7
330
1F
100
AcDbEntity
  8
0
  6
Continuous
 62
     7
370
    25
100
AcDbLine
 10
278.6153469213
 20
210.2709367494
 30
0.0
 11
278.6153469213
 21
227.5209367494
 31
0.0
  0
LINE
  5
1A8
330
1F
100
AcDbEntity
  8
0
  6
Continuous
 62
     7
370
    25
100
AcDbLine
 10
287.6153469213
 20
210.2709367494
 30
0.0
 11
278.6153469213
 21
210.2709367494
 31
0.0
  0
LINE
  5
1A9
330
1F
100
AcDbEntity
  8
0
  6
Continuous
 62
     7
370
    25
100
AcDbLine
 10
287.6153469213
 20
109.7709367494
 30
0.0
 11
287.6153469213
 21
210.2709367494
 31
0.0
  0
LINE
  5
1AA
330
1F
100
AcDbEntity
  8
0
  6
Continuous
 62
     7
370
    25
100
AcDbLine
 10
278.6153469213
 20
109.7709367494
 30
0.0
 11
287.6153469213
 21
109.7709367494
 31
0.0
  0
LINE
  5
1AB
330
1F
100
AcDbEntity
  8
0
  6
Continuous
 62
     7
370
    25
100
AcDbLine
 10
278.6153469213
 20
92.5209367494
 30
0.0
 11
278.6153469213
 21
109.7709367494
 31
0.0
  0
LINE
  5
1AC
330
1F
100
AcDbEntity
  8
0
  6
Continuous
 62
     7
370
    25
100
AcDbLine
 10
190.1153469213
 20
92.5209367494
 30
0.0
 11
278.6153469213
 21
92.5209367494
 31
0.0
  0
LINE
  5
1AD
330
1F
100
AcDbEntity
  8
0
  6
Continuous
 62
     7
370
    25
100
AcDbLine
 10
190.1153469213
 20
102.0209367494
 30
0.0
 11
190.1153469213
 21
92.5209367494
 31
0.0
  0
LINE
  5
1AE
330
1F
100
AcDbEntity
  8
0
  6
Continuous
 62
     7
370
    25
100
AcDbLine
 10
174.1153469213
 20
102.0209367494
 30
0.0
 11
190.1153469213
 21
102.0209367494
 31
0.0
  0
LINE
  5
1AF
330
1F
100
AcDbEntity
  8
0
  6
Continuous
 62
     7
370
    25
100
AcDbLine
 10
174.1153469213
 20
92.5209367494
 30
0.0
 11
174.1153469213
 21
102.0209367494
 31
0.0
  0
LINE
  5
1B0
330
1F
100
AcDbEntity
  8
0
  6
Continuous
 62
     7
370
    25
100
AcDbLine
 10
85.6153469213
 20
92.5209367494
 30
0.0
 11
174.1153469213
 21
92.5209367494
 31
0.0
  0
LINE
  5
1B1
330
1F
100
AcDbEntity
  8
0
  6
Continuous
 62
     7
370
    25
100
AcDbLine
 10
85.6153469213
 20
109.7709367494
 30
0.0
 11
85.6153469213
 21
92.5209367494
 31
0.0
  0
LINE
  5
1B2
330
1F
100
AcDbEntity
  8
0
  6
Continuous
 62
     7
370
    25
100
AcDbLine
 10
76.6153469213
 20
109.7709367494
 30
0.0
 11
85.6153469213
 21
109.7709367494
 31
0.0
  0
LINE
  5
1B3
330
1F
100
AcDbEntity
  8
0
  6
Continuous
 62
     7
370
    25
100
AcDbLine
 10
76.6153469213
 20
210.2709367494
 30
0.0
 11
76.6153469213
 21
109.7709367494
 31
0.0
  0
LINE
  5
1B4
330
1F
100
AcDbEntity
  8
0
  6
Continuous
 62
     7
370
    25
100
AcDbLine
 10
85.6153469213
 20
210.2709367494
 30
0.0
 11
76.6153469213
 21
210.2709367494
 31
0.0
  0
LINE
  5
1B5
330
1F
100
AcDbEntity
  8
0
  6
Continuous
 62
     7
370
    25
100
AcDbLine
 10
85.6153469213
 20
227.5209367494
 30
0.0
 11
85.6153469213
 21
210.2709367494
 31
0.0
  0
LINE
  5
1B6
330
1F
100
AcDbEntity
  8
0
  6
Continuous
 62
     7
370
    25
100
AcDbLine
 10
174.1153469213
 20
227.5209367494
 30
0.0
 11
85.6153469213
 21
227.5209367494
 31
0.0
  0
LINE
  5
1B7
330
1F
100
AcDbEntity
  8
0
  6
Continuous
 62
     7
370
    25
100
AcDbLine
 10
174.1153469213
 20
218.0209367494
 30
0.0
 11
174.1153469213
 21
227.5209367494
 31
0.0
  0
LINE
  5
1B8
330
1F
100
AcDbEntity
  8
0
  6
Continuous
 62
     7
370
    25
100
AcDbLine
 10
190.1153469213
 20
218.0209367494
 30
0.0
 11
174.1153469213
 21
218.0209367494
 31
0.0
  0
LINE
  5
1B9
330
1F
100
AcDbEntity
  8
0
  6
Continuous
 62
     7
370
    25
100
AcDbLine
 10
190.1153469213
 20
227.5209367494
 30
0.0
 11
190.1153469213
 21
218.0209367494
 31
0.0
  0
LINE
  5
1BA
330
1F
100
AcDbEntity
  8
0
  6
Continuous
 62
     7
370
    25
100
AcDbLine
 10
278.6153469213
 20
227.5209367494
 30
0.0
 11
190.1153469213
 21
227.5209367494
 31
0.0
  0
DIMENSION
  5
1BB
330
1F
100
AcDbEntity
  8
LAYER_1
100
AcDbDimension
  2
_D
 10
89.5574521743
 20
140.5209367494
 30
0.0
 11
89.5574521743
 21
163.3060576021
 31
0.0
 70
   160
  1
<>
 71
     2
 42
-1.0
  3
SLDDIMSTYLE0
100
AcDbAlignedDimension
 13
98.9653469213
 23
179.5209367494
 33
0.0
 14
98.9653469213
 24
140.5209367494
 34
0.0
 50
90.0
100
AcDbRotatedDimension
  0
DIMENSION
  5
1C7
330
1F
100
AcDbEntity
  8
LAYER_1
100
AcDbDimension
  2
_D_1
 10
142.1594045194
 20
109.9709367494
 30
0.0
 11
142.1594045194
 21
160.2632407243
 31
0.0
 70
   160
  1
<>
 71
     2
 42
-1.0
  3
SLDDIMSTYLE1
100
AcDbAlignedDimension
 13
132.0653469213
 23
210.0709367494
 33
0.0
 14
132.0653469213
 24
109.9709367494
 34
0.0
 50
90.0
100
AcDbRotatedDimension
  0
DIMENSION
  5
1D2
330
1F
100
AcDbEntity
  8
LAYER_1
100
AcDbDimension
  2
_D_2
 10
233.3232121174
 20
108.6587446188
 30
0.0
 11
224.8158747897
 21
118.3000101404
 31
0.0
 70
   163
  1
<>
 71
     1
 42
-1.0
  3
SLDDIMSTYLE2
100
AcDbDiametricDimension
 15
231.0074817251
 25
111.28312888
 35
0.0
 40
0.0
  0
DIMENSION
  5
1DF
330
1F
100
AcDbEntity
  8
LAYER_1
100
AcDbDimension
  2
_D_3
 10
70.3742485375
 20
109.7709367494
 30
0.0
 11
70.3742485375
 21
157.6946681197
 31
0.0
 70
   160
  1
<>
 71
     2
 42
-1.0
  3
SLDDIMSTYLE1
100
AcDbAlignedDimension
 13
76.6153469213
 23
210.2709367494
 33
0.0
 14
76.6153469213
 24
109.7709367494
 34
0.0
 50
90.0
100
AcDbRotatedDimension
  0
DIMENSION
  5
1E9
330
1F
100
AcDbEntity
  8
LAYER_1
100
AcDbDimension
  2
_D_4
 10
60.6153469213
 20
101.9209367494
 30
0.0
 11
60.6153469213
 21
157.6886467169
 31
0.0
 70
   160
  1
<>
 71
     2
 42
-1.0
  3
SLDDIMSTYLE1
100
AcDbAlignedDimension
 13
91.1153469213
 23
218.1209367494
 33
0.0
 14
91.1153469213
 24
101.9209367494
 34
0.0
 50
90.0
100
AcDbRotatedDimension
  0
DIMENSION
  5
1F3
330
1F
100
AcDbEntity
  8
LAYER_1
100
AcDbDimension
  2
_D_5
 10
50.8452707634
 20
92.5209367494
 30
0.0
 11
50.8452707634
 21
157.6946681197
 31
0.0
 70
   160
  1
<>
 71
     2
 42
-1.0
  3
SLDDIMSTYLE0
100
AcDbAlignedDimension
 13
85.6153469213
 23
227.5209367494
 33
0.0
 14
85.6153469213
 24
92.5209367494
 34
0.0
 50
90.0
100
AcDbRotatedDimension
  0
DIMENSION
  5
1FD
330
1F
100
AcDbEntity
  8
LAYER_1
100
AcDbDimension
  2
_D_6
 10
232.1653469213
 20
82.5709367494
 30
0.0
 11
184.068080685
 21
82.5709367494
 31
0.0
 70
   160
  1
<>
 71
     2
 42
-1.0
  3
SLDDIMSTYLE1
100
AcDbAlignedDimension
 13
132.0653469213
 23
109.9709367494
 33
0.0
 14
232.1653469213
 24
109.9709367494
 34
0.0
 50
0.0
100
AcDbRotatedDimension
  0
DIMENSION
  5
207
330
1F
100
AcDbEntity
  8
LAYER_1
100
AcDbDimension
  2
_D_7
 10
273.1153469213
 20
74.3007084909
 30
0.0
 11
184.070031468
 21
74.3007084909
 31
0.0
 70
   160
  1
<>
 71
     2
 42
-1.0
  3
SLDDIMSTYLE0
100
AcDbAlignedDimension
 13
91.1153469213
 23
101.9209367494
 33
0.0
 14
273.1153469213
 24
101.9209367494
 34
0.0
100
AcDbRotatedDimension
  0
DIMENSION
  5
211
330
1F
100
AcDbEntity
  8
LAYER_1
100
AcDbDimension
  2
_D_8
 10
278.6153469213
 20
67.5697921455
 30
0.0
 11
184.070031468
 21
67.5697921455
 31
0.0
 70
   160
  1
<>
 71
     2
 42
-1.0
  3
SLDDIMSTYLE0
100
AcDbAlignedDimension
 13
85.6153469213
 23
92.5209367494
 33
0.0
 14
278.6153469213
 24
92.5209367494
 34
0.0
100
AcDbRotatedDimension
  0
DIMENSION
  5
21B
330
1F
100
AcDbEntity
  8
LAYER_1
100
AcDbDimension
  2
_D_9
 10
287.6153469213
 20
60.9108408434
 30
0.0
 11
184.070031468
 21
60.9108408434
 31
0.0
 70
   160
  1
<>
 71
     2
 42
-1.0
  3
SLDDIMSTYLE0
100
AcDbAlignedDimension
 13
76.6153469213
 23
109.7709367494
 33
0.0
 14
287.6153469213
 24
109.7709367494
 34
0.0
 50
0.0
100
AcDbRotatedDimension
  0
DIMENSION
  5
225
330
1F
100
AcDbEntity
  8
LAYER_1
100
AcDbDimension
  2
_D_10
 10
174.1153469213
 20
204.6048596498
 30
0.0
 11
184.070031468
 21
204.6048596498
 31
0.0
 70
   160
  1
<>
 71
     2
 42
-1.0
  3
SLDDIMSTYLE3
100
AcDbAlignedDimension
 13
190.1153469213
 23
218.0209367494
 33
0.0
 14
174.1153469213
 24
218.0209367494
 34
0.0
100
AcDbRotatedDimension
  0
DIMENSION
  5
232
330
1F
100
AcDbEntity
  8
LAYER_1
100
AcDbDimension
  2
_D_11
 10
167.0365202603
 20
227.5209367494
 30
0.0
 11
167.0365202603
 21
239.7751697781
 31
0.0
 70
   160
  1
<>
 71
     2
 42
-1.0
  3
SLDDIMSTYLE1
100
AcDbAlignedDimension
 13
174.1153469213
 23
218.0209367494
 33
0.0
 14
174.1153469213
 24
227.5209367494
 34
0.0
 50
90.0
100
AcDbRotatedDimension
  0
DIMENSION
  5
23C
330
1F
100
AcDbEntity
  8
LAYER_1
100
AcDbDimension
  2
_D_12
 10
265.2653469213
 20
189.8457950543
 30
0.0
 11
184.070031468
 21
189.8457950543
 31
0.0
 70
   160
  1
<>
 71
     2
 42
-1.0
  3
SLDDIMSTYLE1
100
AcDbAlignedDimension
 13
98.9653469213
 23
179.5209367494
 33
0.0
 14
265.2653469213
 24
179.5209367494
 34
0.0
100
AcDbRotatedDimension
  0
LINE
  5
246
330
1F
100
AcDbEntity
  8
0
  6
Continuous
 62
     7
370
    25
100
AcDbLine
 10
354.9001743311
 20
109.7709367494
 30
0.0
 11
356.5001743311
 21
109.7709367494
 31
0.0
  0
LINE
  5
247
330
1F
100
AcDbEntity
  8
0
  6
Continuous
 62
     7
370
    25
100
AcDbLine
 10
354.9001743311
 20
210.2709367494
 30
0.0
 11
356.5001743311
 21
210.2709367494
 31
0.0
  0
LINE
  5
248
330
1F
100
AcDbEntity
  8
0
  6
Continuous
 62
     7
370
    25
100
AcDbLine
 10
356.5001743311
 20
109.7709367494
 30
0.0
 11
356.5001743311
 21
210.2709367494
 31
0.0
  0
LINE
  5
249
330
1F
100
AcDbEntity
  8
0
  6
Continuous
 62
     7
370
    25
100
AcDbLine
 10
354.9001743311
 20
109.7709367494
 30
0.0
 11
354.9001743311
 21
210.2709367494
 31
0.0
  0
LINE
  5
24A
330
1F
100
AcDbEntity
  8
0
  6
Continuous
 62
     7
370
    25
100
AcDbLine
 10
354.9001743311
 20
92.5209367494
 30
0.0
 11
356.5001743311
 21
92.5209367494
 31
0.0
  0
LINE
  5
24B
330
1F
100
AcDbEntity
  8
0
  6
Continuous
 62
     7
370
    25
100
AcDbLine
 10
356.5001743311
 20
92.5209367494
 30
0.0
 11
356.5001743311
 21
109.7709367494
 31
0.0
  0
LINE
  5
24C
330
1F
100
AcDbEntity
  8
0
  6
Continuous
 62
     7
370
    25
100
AcDbLine
 10
354.9001743311
 20
92.5209367494
 30
0.0
 11
354.9001743311
 21
109.7709367494
 31
0.0
  0
LINE
  5
24D
330
1F
100
AcDbEntity
  8
0
  6
Continuous
 62
     7
370
    25
100
AcDbLine
 10
354.9001743311
 20
227.5209367494
 30
0.0
 11
356.5001743311
 21
227.5209367494
 31
0.0
  0
LINE
  5
24E
330
1F
100
AcDbEntity
  8
0
  6
Continuous
 62
     7
370
    25
100
AcDbLine
 10
356.5001743311
 20
210.2709367494
 30
0.0
 11
356.5001743311
 21
227.5209367494
 31
0.0
  0
LINE
  5
24F
330
1F
100
AcDbEntity
  8
0
  6
Continuous
 62
     7
370
    25
100
AcDbLine
 10
354.9001743311
 20
210.2709367494
 30
0.0
 11
354.9001743311
 21
227.5209367494
 31
0.0
  0
DIMENSION
  5
250
330
1F
100
AcDbEntity
  8
LAYER_1
100
AcDbDimension
  2
_D_13
 10
356.5001743311
 20
239.2106787551
 30
0.0
 11
342.6949838878
 21
239.2106787551
 31
0.0
 70
   160
  1
<>
 71
     2
 42
-1.0
  3
SLDDIMSTYLE4
100
AcDbAlignedDimension
 13
354.9001743311
 23
227.5209367494
 33
0.0
 14
356.5001743311
 24
227.5209367494
 34
0.0
100
AcDbRotatedDimension
  0
ENDSEC
  0
SECTION
  2
OBJECTS
  0
DICTIONARY
  5
C
330
0
100
AcDbDictionary
281
     1
  3
ACAD_GROUP
350
D
  3
ACAD_LAYOUT
350
1A
  3
ACAD_MLINESTYLE
350
17
  3
ACAD_PLOTSETTINGS
350
19
  3
ACAD_PLOTSTYLENAME
350
E
  3
ACAD_SCALELIST
350
47
  3
DWGPROPS
350
25D
  0
DICTIONARY
  5
D
102
{ACAD_REACTORS
330
C
102
}
330
C
100
AcDbDictionary
281
     1
  0
DICTIONARY
  5
1A
102
{ACAD_REACTORS
330
C
102
}
330
C
100
AcDbDictionary
281
     1
  3
Layout1
350
1E
  3
Layout2
350
26
  3
Model
350
22
  0
DICTIONARY
  5
17
102
{ACAD_REACTORS
330
C
102
}
330
C
100
AcDbDictionary
281
     1
  3
Standard
350
18
  0
DICTIONARY
  5
19
102
{ACAD_REACTORS
330
C
102
}
330
C
100
AcDbDictionary
281
     1
  0
ACDBDICTIONARYWDFLT
  5
E
102
{ACAD_REACTORS
330
C
102
}
330
C
100
AcDbDictionary
281
     1
  3
Normal
350
F
100
AcDbDictionaryWithDefault
340
F
  0
DICTIONARY
  5
47
102
{ACAD_REACTORS
330
C
102
}
330
C
100
AcDbDictionary
281
     1
  3
A0
350
48
  3
A1
350
49
  3
A2
350
4A
  3
A3
350
4B
  3
A4
350
4C
  3
A5
350
4D
  3
A6
350
4E
  3
A7
350
4F
  3
A8
350
50
  3
A9
350
51
  3
B0
350
52
  3
B1
350
53
  3
B2
350
54
  3
B3
350
55
  3
B4
350
56
  3
B5
350
57
  3
B6
350
58
  3
B7
350
59
  3
B8
350
5A
  3
B9
350
5B
  3
C0
350
5C
  3
C1
350
5D
  3
C2
350
5E
  3
C3
350
5F
  3
C4
350
60
  3
C5
350
61
  3
C6
350
62
  3
C7
350
63
  3
C8
350
64
  3
C9
350
65
  3
D0
350
66
  3
D1
350
67
  3
D2
350
68
  0
XRECORD
  5
25D
102
{ACAD_REACTORS
330
C
102
}
330
C
100
AcDbXrecord
280
     1
  1
DWGPROPS COOKIE
  2

  3

  4

  6

  7

  8
hayri
  9

300
=
301
=
302
=
303
=
304
=
305
=
306
=
307
=
308
=
309
=
 40
0.0
 41
2458858.227540509
 42
2458858.227544826
  1

 90
        0
  0
LAYOUT
  5
1E
102
{ACAD_REACTORS
330
1A
102
}
330
1A
100
AcDbPlotSettings
  1

  2
none_device
  4

  6

 40
0.0
 41
0.0
 42
0.0
 43
0.0
 44
0.0
 45
0.0
 46
0.0
 47
0.0
 48
0.0
 49
0.0
140
0.0
141
0.0
142
1.0
143
1.0
 70
   688
 72
     1
 73
     0
 74
     5
  7

 75
    16
147
1.0
148
0.0
149
0.0
100
AcDbLayout
  1
Layout1
 70
     1
 71
     1
 10
0.0
 20
0.0
 11
420.0
 21
297.0
 12
0.0
 22
0.0
 32
0.0
 14
1.0000000000E+20
 24
1.0000000000E+20
 34
1.0000000000E+20
 15
-1.0000000000E+20
 25
-1.0000000000E+20
 35
-1.0000000000E+20
146
0.0
 13
0.0
 23
0.0
 33
0.0
 16
1.0
 26
0.0
 36
0.0
 17
0.0
 27
1.0
 37
0.0
 76
     0
330
1B
  0
LAYOUT
  5
26
102
{ACAD_REACTORS
330
1A
102
}
330
1A
100
AcDbPlotSettings
  1

  2
none_device
  4

  6

 40
0.0
 41
0.0
 42
0.0
 43
0.0
 44
0.0
 45
0.0
 46
0.0
 47
0.0
 48
0.0
 49
0.0
140
0.0
141
0.0
142
1.0
143
1.0
 70
   688
 72
     1
 73
     0
 74
     5
  7

 75
    16
147
1.0
148
0.0
149
0.0
100
AcDbLayout
  1
Layout2
 70
     1
 71
     2
 10
0.0
 20
0.0
 11
0.0
 21
0.0
 12
0.0
 22
0.0
 32
0.0
 14
0.0
 24
0.0
 34
0.0
 15
0.0
 25
0.0
 35
0.0
146
0.0
 13
0.0
 23
0.0
 33
0.0
 16
1.0
 26
0.0
 36
0.0
 17
0.0
 27
1.0
 37
0.0
 76
     0
330
23
  0
LAYOUT
  5
22
102
{ACAD_REACTORS
330
1A
102
}
330
1A
100
AcDbPlotSettings
  1

  2
none_device
  4
Letter_(8.50_x_11.00_Inches)
  6

 40
6.35
 41
6.35
 42
6.35000508
 43
6.35000508
 44
215.9
 45
279.4
 46
0.0
 47
0.0
 48
0.0
 49
0.0
140
0.0
141
0.0
142
1.0
143
1.0
 70
  1712
 72
     1
 73
     0
 74
     0
  7

 75
     0
147
1.0
148
0.0
149
0.0
100
AcDbLayout
  1
Model
 70
     1
 71
     0
 10
0.0
 20
0.0
 11
420.0
 21
297.0
 12
0.0
 22
0.0
 32
0.0
 14
0.0
 24
0.0
 34
0.0
 15
420.0
 25
297.0
 35
0.0
146
0.0
 13
0.0
 23
0.0
 33
0.0
 16
1.0
 26
0.0
 36
0.0
 17
0.0
 27
1.0
 37
0.0
 76
     0
330
1F
331
29
  0
MLINESTYLE
  5
18
102
{ACAD_REACTORS
330
17
102
}
330
17
100
AcDbMlineStyle
  2
Standard
 70
     0
  3

 62
   256
 51
90.0
 52
90.0
 71
     2
 49
0.5
 62
   256
  6
BYLAYER
 49
-0.5
 62
   256
  6
BYLAYER
  0
ACDBPLACEHOLDER
  5
F
102
{ACAD_REACTORS
330
E
102
}
330
E
  0
SCALE
  5
48
102
{ACAD_REACTORS
330
47
102
}
330
47
100
AcDbScale
 70
     0
300
1:1
140
1.0
141
1.0
290
     1
  0
SCALE
  5
49
102
{ACAD_REACTORS
330
47
102
}
330
47
100
AcDbScale
 70
     0
300
1:2
140
1.0
141
2.0
290
     0
  0
SCALE
  5
4A
102
{ACAD_REACTORS
330
47
102
}
330
47
100
AcDbScale
 70
     0
300
1:4
140
1.0
141
4.0
290
     0
  0
SCALE
  5
4B
102
{ACAD_REACTORS
330
47
102
}
330
47
100
AcDbScale
 70
     0
300
1:5
140
1.0
141
5.0
290
     0
  0
SCALE
  5
4C
102
{ACAD_REACTORS
330
47
102
}
330
47
100
AcDbScale
 70
     0
300
1:8
140
1.0
141
8.0
290
     0
  0
SCALE
  5
4D
102
{ACAD_REACTORS
330
47
102
}
330
47
100
AcDbScale
 70
     0
300
1:10
140
1.0
141
10.0
290
     0
  0
SCALE
  5
4E
102
{ACAD_REACTORS
330
47
102
}
330
47
100
AcDbScale
 70
     0
300
1:16
140
1.0
141
16.0
290
     0
  0
SCALE
  5
4F
102
{ACAD_REACTORS
330
47
102
}
330
47
100
AcDbScale
 70
     0
300
1:20
140
1.0
141
20.0
290
     0
  0
SCALE
  5
50
102
{ACAD_REACTORS
330
47
102
}
330
47
100
AcDbScale
 70
     0
300
1:30
140
1.0
141
30.0
290
     0
  0
SCALE
  5
51
102
{ACAD_REACTORS
330
47
102
}
330
47
100
AcDbScale
 70
     0
300
1:40
140
1.0
141
40.0
290
     0
  0
SCALE
  5
52
102
{ACAD_REACTORS
330
47
102
}
330
47
100
AcDbScale
 70
     0
300
1:50
140
1.0
141
50.0
290
     0
  0
SCALE
  5
53
102
{ACAD_REACTORS
330
47
102
}
330
47
100
AcDbScale
 70
     0
300
1:100
140
1.0
141
100.0
290
     0
  0
SCALE
  5
54
102
{ACAD_REACTORS
330
47
102
}
330
47
100
AcDbScale
 70
     0
300
2:1
140
2.0
141
1.0
290
     0
  0
SCALE
  5
55
102
{ACAD_REACTORS
330
47
102
}
330
47
100
AcDbScale
 70
     0
300
4:1
140
4.0
141
1.0
290
     0
  0
SCALE
  5
56
102
{ACAD_REACTORS
330
47
102
}
330
47
100
AcDbScale
 70
     0
300
8:1
140
8.0
141
1.0
290
     0
  0
SCALE
  5
57
102
{ACAD_REACTORS
330
47
102
}
330
47
100
AcDbScale
 70
     0
300
10:1
140
10.0
141
1.0
290
     0
  0
SCALE
  5
58
102
{ACAD_REACTORS
330
47
102
}
330
47
100
AcDbScale
 70
     0
300
100:1
140
100.0
141
1.0
290
     0
  0
SCALE
  5
59
102
{ACAD_REACTORS
330
47
102
}
330
47
100
AcDbScale
 70
     0
300
1/128" = 1'-0"
140
0.0078125
141
12.0
290
     0
  0
SCALE
  5
5A
102
{ACAD_REACTORS
330
47
102
}
330
47
100
AcDbScale
 70
     0
300
1/64" = 1'-0"
140
0.015625
141
12.0
290
     0
  0
SCALE
  5
5B
102
{ACAD_REACTORS
330
47
102
}
330
47
100
AcDbScale
 70
     0
300
1/32" = 1'-0"
140
0.03125
141
12.0
290
     0
  0
SCALE
  5
5C
102
{ACAD_REACTORS
330
47
102
}
330
47
100
AcDbScale
 70
     0
300
1/16" = 1'-0"
140
0.0625
141
12.0
290
     0
  0
SCALE
  5
5D
102
{ACAD_REACTORS
330
47
102
}
330
47
100
AcDbScale
 70
     0
300
3/32" = 1'-0"
140
0.09375
141
12.0
290
     0
  0
SCALE
  5
5E
102
{ACAD_REACTORS
330
47
102
}
330
47
100
AcDbScale
 70
     0
300
1/8" = 1'-0"
140
0.125
141
12.0
290
     0
  0
SCALE
  5
5F
102
{ACAD_REACTORS
330
47
102
}
330
47
100
AcDbScale
 70
     0
300
3/16" = 1'-0"
140
0.1875
141
12.0
290
     0
  0
SCALE
  5
60
102
{ACAD_REACTORS
330
47
102
}
330
47
100
AcDbScale
 70
     0
300
1/4" = 1'-0"
140
0.25
141
12.0
290
     0
  0
SCALE
  5
61
102
{ACAD_REACTORS
330
47
102
}
330
47
100
AcDbScale
 70
     0
300
3/8" = 1'-0"
140
0.375
141
12.0
290
     0
  0
SCALE
  5
62
102
{ACAD_REACTORS
330
47
102
}
330
47
100
AcDbScale
 70
     0
300
1/2" = 1'-0"
140
0.5
141
12.0
290
     0
  0
SCALE
  5
63
102
{ACAD_REACTORS
330
47
102
}
330
47
100
AcDbScale
 70
     0
300
3/4" = 1'-0"
140
0.75
141
12.0
290
     0
  0
SCALE
  5
64
102
{ACAD_REACTORS
330
47
102
}
330
47
100
AcDbScale
 70
     0
300
1" = 1'-0"
140
1.0
141
12.0
290
     0
  0
SCALE
  5
65
102
{ACAD_REACTORS
330
47
102
}
330
47
100
AcDbScale
 70
     0
300
1-1/2" = 1'-0"
140
1.5
141
12.0
290
     0
  0
SCALE
  5
66
102
{ACAD_REACTORS
330
47
102
}
330
47
100
AcDbScale
 70
     0
300
3" = 1'-0"
140
3.0
141
12.0
290
     0
  0
SCALE
  5
67
102
{ACAD_REACTORS
330
47
102
}
330
47
100
AcDbScale
 70
     0
300
6" = 1'-0"
140
6.0
141
12.0
290
     0
  0
SCALE
  5
68
102
{ACAD_REACTORS
330
47
102
}
330
47
100
AcDbScale
 70
     0
300
1'-0" = 1'-0"
140
12.0
141
12.0
290
     0
  0
ENDSEC
  0
EOF
